<?xml version="1.0" standalone="no"?>
<!DOCTYPE svg PUBLIC "-//W3C//DTD SVG 20010904//EN"
 "http://www.w3.org/TR/2001/REC-SVG-20010904/DTD/svg10.dtd">
<svg version="1.0" xmlns="http://www.w3.org/2000/svg"
 width="400.000000pt" height="405.000000pt" viewBox="0 0 400.000000 405.000000"
 preserveAspectRatio="xMidYMid meet">

<g transform="translate(0.000000,405.000000) scale(0.100000,-0.100000)"
fill="#000000" stroke="none">
<path d="M706 3749 c-58 -14 -69 -27 -63 -72 3 -21 8 -42 12 -45 8 -9 36 28
29 39 -9 15 54 39 108 41 50 3 74 18 61 41 -6 10 -98 7 -147 -4z"/>
<path d="M1525 3701 c-3 -6 -1 -11 4 -11 6 0 11 -5 11 -11 0 -7 -10 -9 -24 -7
-18 4 -23 1 -18 -10 4 -12 -1 -14 -24 -9 -32 7 -194 25 -323 36 -63 5 -87 4
-97 -6 -15 -16 -48 -17 -94 -2 -52 16 -156 13 -210 -7 -58 -21 -84 -61 -95
-144 -10 -75 -26 -149 -73 -325 -21 -82 -49 -195 -61 -250 -24 -108 -38 -170
-77 -340 -35 -156 -60 -273 -83 -400 -28 -146 -68 -345 -86 -422 -8 -35 -21
-91 -29 -125 -8 -35 -26 -110 -40 -168 -14 -58 -27 -116 -30 -130 -2 -14 -12
-56 -21 -95 -9 -38 -17 -113 -18 -165 -1 -111 15 -156 84 -234 40 -45 41 -47
13 -33 -16 8 -38 24 -48 36 -38 42 -64 11 -31 -37 27 -37 104 -85 119 -73 8 7
24 7 50 0 21 -6 40 -8 43 -5 7 6 -57 46 -74 46 -7 0 -13 4 -13 9 0 6 20 4 48
-4 26 -7 92 -18 147 -25 150 -17 233 -33 560 -104 39 -9 82 -16 98 -16 15 0
27 -5 27 -10 0 -6 -10 -8 -22 -6 -13 3 -79 14 -148 26 -69 12 -144 25 -168 29
-34 7 -45 5 -49 -6 -3 -7 -4 -16 -2 -18 4 -3 285 -46 426 -65 34 -4 66 -11 71
-14 15 -9 42 4 42 20 0 9 9 12 28 9 15 -3 77 -12 137 -20 61 -9 139 -22 175
-30 125 -26 176 -35 275 -50 117 -18 314 -45 329 -45 6 0 5 -5 -1 -11 -9 -9
-27 -9 -73 0 -68 14 -74 12 -64 -13 5 -13 14 -16 33 -13 14 3 55 0 91 -8 36
-7 108 -18 160 -24 88 -12 156 -25 270 -54 48 -12 71 -11 81 5 4 6 21 6 48 -2
48 -13 81 -6 81 17 0 9 6 13 15 9 8 -3 54 -13 101 -21 81 -16 87 -16 105 1 11
10 17 24 15 31 -3 7 -1 25 3 40 5 15 22 88 37 161 19 93 31 131 40 128 18 -7
31 13 39 59 4 22 12 45 16 51 5 6 14 38 20 70 5 33 15 71 20 86 6 14 19 61 29
105 10 43 23 96 29 118 8 31 7 42 -2 50 -24 18 -25 41 -10 126 17 93 18 130 3
139 -9 6 5 83 54 308 13 59 26 91 26 63 0 -7 5 -9 10 -6 6 3 10 14 10 24 0 10
9 26 19 35 11 10 23 32 26 50 40 197 92 386 106 386 5 0 9 -4 9 -10 0 -5 5
-10 10 -10 19 0 10 46 -14 63 -25 19 -25 41 4 134 13 43 7 84 -10 67 -5 -5
-19 -54 -31 -109 -12 -55 -25 -116 -30 -135 -4 -19 -13 -57 -18 -83 -13 -59
-36 -101 -26 -47 4 19 9 49 11 65 5 27 48 233 61 293 3 14 1 22 -7 22 -12 0
-11 21 5 100 3 14 8 41 11 60 3 19 21 97 40 172 19 75 34 155 34 178 0 41 -23
100 -39 100 -5 0 -14 13 -19 30 -13 37 -49 52 -173 74 -171 31 -204 38 -234
55 -16 8 -34 16 -40 17 -5 0 -17 3 -25 6 -8 3 -69 11 -135 16 -103 10 -122 14
-134 32 -8 11 -24 20 -40 20 -50 0 -286 39 -330 55 -57 20 -64 19 -58 -5 4
-17 2 -20 -14 -15 -11 4 -25 2 -32 -3 -7 -5 -44 -4 -97 4 -47 7 -94 14 -105
15 -17 1 -17 2 -2 6 9 2 17 8 17 13 0 19 -29 28 -88 29 -66 0 -126 6 -202 21
-194 36 -313 62 -341 74 -10 4 -20 3 -24 -3z m-552 -58 c12 -7 3 -104 -23
-244 -21 -115 -84 -396 -101 -446 -16 -51 -24 -203 -10 -203 6 0 11 3 11 8 0
33 22 196 31 232 18 73 19 74 30 63 7 -7 4 -40 -12 -109 -45 -199 -27 -223
183 -259 156 -27 339 -53 413 -59 128 -12 319 -37 395 -52 127 -26 385 -63
595 -84 110 -12 236 -30 280 -42 126 -32 134 -33 141 -12 4 11 15 28 24 39 16
19 49 93 55 125 2 8 10 56 19 105 17 88 43 206 71 315 8 30 22 91 30 135 9 44
24 108 32 143 15 61 16 62 49 62 93 0 283 -43 322 -73 14 -11 16 -71 3 -130
-5 -23 -15 -76 -21 -117 -7 -41 -23 -130 -36 -198 -13 -67 -31 -171 -40 -230
-8 -59 -32 -179 -53 -267 -21 -88 -46 -203 -55 -255 -10 -52 -24 -124 -32
-160 -7 -36 -27 -159 -44 -275 -16 -115 -37 -249 -45 -298 -8 -48 -22 -129
-31 -180 -14 -83 -46 -254 -60 -317 -3 -14 -11 -54 -19 -90 -41 -194 -56 -257
-64 -276 l-9 -21 -109 18 c-104 19 -205 34 -288 45 -101 14 -171 24 -310 48
-82 13 -172 28 -200 31 -27 4 -198 31 -380 60 -181 30 -395 63 -475 75 -80 12
-183 28 -230 36 -217 38 -257 45 -297 55 -24 5 -112 20 -196 34 -239 39 -295
66 -318 158 -22 91 -3 213 110 677 22 91 60 273 85 405 26 132 53 269 62 305
9 36 22 94 30 130 8 36 21 88 28 115 13 46 14 47 15 17 1 -18 -9 -74 -20 -123
-21 -88 -19 -117 9 -100 7 4 17 34 22 67 5 32 18 91 29 129 19 65 19 71 4 83
-9 6 -23 12 -31 12 -10 0 -12 7 -7 28 4 15 15 68 26 119 20 94 49 176 68 187
14 9 14 53 0 58 -8 3 2 58 29 168 38 154 56 239 57 267 1 23 39 54 84 67 44
13 152 13 174 -1z m347 -8 c47 -5 393 -49 510 -66 36 -5 88 -11 115 -14 28 -3
113 -15 190 -25 77 -11 196 -26 265 -35 69 -9 150 -20 180 -25 30 -5 89 -12
130 -15 97 -8 264 -33 315 -47 70 -20 70 -18 41 -179 -14 -79 -27 -155 -30
-169 -14 -61 -108 -439 -118 -474 -16 -52 -45 -86 -73 -86 -13 0 -26 -4 -29
-9 -3 -4 -29 -5 -58 -1 -29 4 -100 13 -158 20 -187 20 -263 30 -360 45 -52 8
-153 24 -225 35 -156 24 -335 47 -465 61 -171 18 -462 67 -554 94 -77 22 -80
36 -50 181 14 66 36 180 50 254 14 74 29 149 34 165 17 52 48 188 55 238 6 36
13 51 29 58 19 8 86 6 206 -6z m-270 -20 c0 -25 -12 -45 -27 -45 -10 0 -13 6
-9 16 3 9 6 24 6 35 0 12 5 16 15 13 8 -4 15 -12 15 -19z m-34 -145 c-15 -63
-26 -87 -26 -56 0 24 31 129 36 123 3 -2 -2 -32 -10 -67z m1537 43 c-7 -2 -19
-2 -25 0 -7 3 -2 5 12 5 14 0 19 -2 13 -5z m920 -1346 c-3 -20 -10 -37 -15
-37 -5 0 -6 10 -3 23 4 12 9 30 12 40 8 31 13 13 6 -26z m-3043 -1326 c0 -5
-9 -7 -20 -4 -11 3 -20 7 -20 9 0 2 9 4 20 4 11 0 20 -4 20 -9z m43 -8 c-7 -2
-19 -2 -25 0 -7 3 -2 5 12 5 14 0 19 -2 13 -5z m917 -143 c74 -12 230 -37 345
-55 116 -19 275 -44 355 -55 80 -12 280 -43 445 -70 165 -27 341 -54 390 -61
50 -6 95 -16 100 -22 12 -11 -28 -7 -160 16 -49 9 -124 19 -165 22 -41 4 -86
9 -100 12 -40 8 -287 42 -380 53 -47 5 -112 14 -145 19 -33 6 -105 17 -160 26
-55 9 -154 26 -220 40 -66 13 -172 31 -235 40 -63 9 -176 28 -250 41 -74 14
-164 30 -200 36 -36 5 -68 13 -72 17 -8 7 207 -21 452 -59z m1718 -61 c-6 -30
-13 -46 -15 -37 -5 19 16 103 23 95 2 -2 -1 -28 -8 -58z m-727 -154 c57 -8
145 -22 194 -30 50 -8 134 -19 188 -26 53 -6 97 -15 97 -20 0 -14 -38 -11
-234 16 -204 29 -336 54 -350 66 -13 11 -18 12 105 -6z"/>
<path d="M3126 3037 c-4 -19 -16 -45 -27 -58 -12 -14 -18 -32 -15 -43 3 -10
-8 -65 -25 -121 -18 -65 -29 -125 -29 -166 0 -82 18 -67 30 24 9 72 16 91 32
81 18 -11 28 19 28 86 0 40 8 88 21 124 11 32 19 68 17 79 -5 34 -25 30 -32
-6z"/>
<path d="M850 2463 c0 -16 -17 -102 -39 -193 -32 -135 -72 -321 -86 -400 -9
-57 -18 -104 -30 -160 -8 -36 -33 -159 -55 -275 -23 -115 -50 -245 -62 -287
-11 -42 -18 -83 -16 -89 3 -8 28 -14 69 -15 77 -3 445 -61 569 -90 30 -7 91
-18 135 -24 44 -6 116 -18 160 -26 220 -40 439 -75 615 -99 236 -31 488 -73
511 -86 50 -26 93 3 49 34 -19 13 -20 21 -14 128 3 63 19 186 35 274 17 88 34
187 40 220 5 33 20 105 33 160 14 55 28 123 31 150 4 28 24 120 45 205 21 85
41 171 44 191 3 19 15 53 26 74 34 67 72 56 -515 145 -110 16 -285 39 -390 50
-208 21 -493 55 -595 71 -85 12 -531 69 -547 69 -8 0 -13 -12 -13 -27z m172
-39 c15 -8 53 -14 86 -14 66 0 322 -30 498 -59 65 -11 155 -23 198 -26 43 -4
112 -13 153 -21 41 -8 91 -14 111 -14 21 0 91 -11 157 -25 66 -14 188 -39 270
-56 83 -17 183 -39 224 -50 41 -10 85 -19 97 -19 21 0 21 -2 12 -42 -5 -24
-23 -113 -38 -198 -28 -151 -50 -266 -90 -460 -11 -52 -29 -151 -41 -220 -12
-69 -26 -145 -30 -170 -5 -25 -14 -74 -19 -110 -6 -36 -16 -85 -24 -109 l-13
-45 -54 3 c-29 1 -56 4 -59 6 -3 2 -44 8 -90 14 -47 6 -139 20 -205 31 -235
39 -391 61 -450 64 -66 3 -85 10 -85 32 0 8 -1 14 -3 14 -2 0 -28 4 -58 10
-30 5 -72 12 -94 15 -183 26 -252 43 -258 65 -5 21 -25 25 -202 40 -96 9 -340
51 -350 61 -4 5 28 180 49 274 9 39 25 117 36 175 11 58 34 168 51 245 75 342
98 463 100 529 1 39 4 75 6 79 7 11 81 -2 115 -19z m1645 -214 c64 -12 123
-25 132 -31 18 -12 8 -10 -164 26 -139 29 -120 31 32 5z m-1947 -1125 c0 -16
-12 -18 -47 -9 -35 10 -27 24 12 24 24 0 35 -5 35 -15z"/>
<path d="M1290 2340 c0 -5 -6 -7 -14 -4 -14 5 -31 -22 -18 -30 4 -2 47 -7 96
-11 149 -11 244 -23 306 -41 40 -11 63 -13 76 -6 33 18 -25 39 -156 57 -69 9
-160 23 -204 31 -93 17 -86 16 -86 4z"/>
<path d="M2806 1513 c-9 -43 -26 -107 -38 -143 -11 -36 -23 -100 -26 -142 -4
-67 -2 -78 12 -78 10 0 16 8 16 22 0 12 4 35 10 52 13 43 50 201 60 261 4 28
11 62 15 78 6 23 4 27 -13 27 -17 0 -23 -12 -36 -77z"/>
<path d="M296 1197 c-16 -54 -14 -95 6 -134 9 -17 23 -23 73 -28 103 -11 100
-14 100 95 l0 94 -35 7 c-19 4 -56 9 -82 13 l-47 5 -15 -52z"/>
<path d="M1610 857 c0 -24 21 -34 85 -42 33 -3 69 -12 80 -19 11 -7 54 -16 95
-19 41 -3 84 -8 95 -10 11 -2 52 -10 90 -16 39 -7 97 -16 130 -22 33 -5 81
-17 107 -25 49 -16 68 -13 68 11 0 16 -30 25 -185 54 -178 33 -233 42 -283 47
-45 5 -228 40 -264 50 -11 3 -18 0 -18 -9z"/>
<path d="M2795 800 c-4 -6 -13 -35 -19 -64 -24 -100 20 -141 131 -120 44 8 78
139 45 172 -21 21 -146 31 -157 12z m65 -120 c0 -5 -4 -10 -10 -10 -5 0 -10 5
-10 10 0 6 5 10 10 10 6 0 10 -4 10 -10z"/>
<path d="M1742 3519 c5 -15 70 -25 213 -33 44 -3 105 -8 135 -10 51 -5 52 -4
15 4 -22 5 -58 15 -80 21 -46 14 -47 14 -184 24 -85 6 -103 5 -99 -6z"/>
<path d="M1083 3413 c-4 -10 -10 -20 -13 -23 -4 -3 -17 -68 -30 -145 -13 -77
-27 -151 -32 -164 -6 -17 -5 -27 3 -32 26 -16 37 5 47 86 6 46 23 118 37 160
29 87 33 135 10 135 -9 0 -19 -8 -22 -17z"/>
<path d="M2503 3347 c-5 -7 -15 -55 -21 -107 -6 -52 -22 -135 -36 -185 -30
-110 -67 -252 -73 -282 -7 -30 17 -38 127 -46 47 -4 110 -13 140 -21 70 -18
90 -9 90 42 0 38 36 201 94 419 21 78 29 128 24 138 -7 11 -26 15 -76 15 -37
0 -98 7 -137 16 -103 23 -122 25 -132 11z m245 -83 c49 -6 50 -12 27 -102 -8
-31 -33 -133 -56 -227 -22 -93 -44 -174 -48 -178 -7 -7 -195 8 -227 18 -18 5
18 178 75 360 16 50 32 103 35 118 l7 28 72 -6 c40 -3 91 -8 115 -11z"/>
<path d="M2417 3263 c-4 -3 -7 -17 -7 -29 0 -13 -10 -63 -22 -111 -27 -110
-32 -225 -9 -221 18 4 39 95 67 303 6 48 -9 79 -29 58z"/>
<path d="M2816 2918 c-26 -86 -48 -208 -37 -208 16 0 76 193 66 210 -9 14 -25
12 -29 -2z"/>
<path d="M2530 2666 c0 -22 151 -49 178 -33 24 15 11 23 -58 35 -93 16 -120
15 -120 -2z"/>
<path d="M410 2838 c0 -33 -36 -211 -60 -297 -22 -79 -23 -132 -2 -139 8 -2
12 8 12 31 0 19 8 43 19 55 11 13 23 53 30 99 7 43 19 104 27 137 19 74 15
130 -8 134 -13 3 -18 -3 -18 -20z"/>
<path d="M2075 361 c-70 -36 -95 -63 -95 -101 0 -44 27 -59 121 -65 101 -7
121 1 167 69 57 85 41 116 -66 123 -60 4 -73 1 -127 -26z m145 -11 c0 -8 -44
-23 -95 -32 -50 -8 -13 -78 42 -78 29 0 40 20 18 32 -14 8 -15 12 -4 19 8 5
26 9 41 9 21 0 25 4 21 20 -4 14 0 20 11 20 9 0 16 -6 16 -13 0 -26 -58 -94
-87 -102 -55 -16 -173 3 -173 28 1 17 32 52 60 68 57 32 150 50 150 29z"/>
<path d="M2487 349 c-67 -16 -144 -58 -172 -95 -22 -29 -25 -38 -14 -45 20
-12 42 -11 34 2 -4 5 1 19 10 29 26 29 121 80 147 80 20 -1 17 -6 -24 -43 -27
-24 -48 -51 -48 -60 0 -32 30 -31 73 2 23 17 58 39 77 49 19 9 38 21 42 27 16
22 18 -6 3 -35 -21 -40 -13 -78 19 -86 17 -4 22 -11 19 -28 -3 -15 1 -25 12
-30 23 -8 34 0 29 22 -9 31 32 62 80 62 23 0 45 -3 48 -6 4 -3 -2 -24 -13 -47
-22 -49 -24 -67 -6 -67 7 0 20 22 30 50 12 33 27 54 44 63 17 9 22 17 14 21
-8 5 -8 13 0 29 7 12 15 24 19 27 13 10 40 55 40 67 0 29 -27 9 -64 -47 -37
-59 -39 -60 -83 -60 l-44 0 30 38 c37 47 48 82 26 82 -8 0 -20 -11 -25 -25
-16 -42 -100 -125 -126 -125 -32 0 -31 30 1 68 29 35 32 62 8 62 -10 -1 -43
-9 -73 -20 -69 -24 -73 -24 -59 -1 12 18 6 52 -8 50 -4 -1 -25 -5 -46 -10z"/>
</g>
</svg>
