<?xml version="1.0" standalone="no"?>
<!DOCTYPE svg PUBLIC "-//W3C//DTD SVG 20010904//EN"
 "http://www.w3.org/TR/2001/REC-SVG-20010904/DTD/svg10.dtd">
<svg version="1.0" xmlns="http://www.w3.org/2000/svg"
 width="60.000000pt" height="60.000000pt" viewBox="0 0 60.000000 60.000000"
 preserveAspectRatio="xMidYMid meet">

<g transform="translate(0.000000,60.000000) scale(0.100000,-0.100000)"
fill="#000000" stroke="none">
<path d="M320 563 c-93 -9 -98 -12 -127 -63 -19 -34 -35 -50 -48 -50 -11 0
-38 -10 -60 -23 -55 -31 -60 -68 -13 -97 l33 -20 -53 0 -53 0 46 -62 c60 -82
61 -85 37 -111 -34 -37 -55 -87 -40 -92 7 -3 126 -4 263 -3 284 3 266 -3 221
88 -16 31 -28 44 -40 42 -21 -4 -18 1 36 74 21 28 38 54 38 57 0 4 -19 7 -42
7 l-42 0 48 30 c40 26 47 35 44 57 -2 23 -12 31 -53 46 -76 29 -79 31 -88 68
-9 37 -32 60 -56 57 -9 0 -32 -3 -51 -5z m-22 -288 c68 0 80 -13 37 -41 -17
-11 -35 -14 -57 -10 -18 4 -49 8 -68 9 -41 3 -56 11 -71 38 -10 19 -8 20 43
12 29 -4 81 -8 116 -8z"/>
</g>
</svg>
