<?xml version="1.0" standalone="no"?>
<!DOCTYPE svg PUBLIC "-//W3C//DTD SVG 20010904//EN"
 "http://www.w3.org/TR/2001/REC-SVG-20010904/DTD/svg10.dtd">
<svg version="1.0" xmlns="http://www.w3.org/2000/svg"
 width="60.000000pt" height="60.000000pt" viewBox="0 0 60.000000 60.000000"
 preserveAspectRatio="xMidYMid meet">

<g transform="translate(0.000000,60.000000) scale(0.100000,-0.100000)"
fill="#000000" stroke="none">
<path d="M222 587 c-46 -14 -121 -84 -143 -132 -35 -77 -21 -176 37 -252 27
-35 110 -83 144 -83 18 0 20 -6 20 -55 0 -30 3 -55 8 -55 4 0 53 46 109 103
115 115 143 163 143 247 0 72 -26 126 -83 176 -68 60 -151 78 -235 51z m179
-40 c53 -28 103 -98 113 -156 13 -82 -9 -127 -111 -231 l-92 -95 -1 38 c0 27
-4 37 -16 37 -45 0 -103 28 -145 70 -77 77 -87 177 -25 268 60 89 181 119 277
69z"/>
<path d="M217 439 c-25 -15 -36 -49 -25 -80 5 -14 31 -47 58 -74 l50 -49 50
49 c27 27 53 60 58 74 20 56 -32 106 -84 83 -17 -8 -31 -9 -44 -2 -23 13 -40
12 -63 -1z m65 -36 c17 -15 19 -15 36 0 25 23 59 21 67 -3 8 -24 -4 -46 -49
-89 l-36 -35 -36 35 c-45 43 -57 65 -49 89 8 24 42 26 67 3z"/>
</g>
</svg>
