<?xml version="1.0" standalone="no"?>
<!DOCTYPE svg PUBLIC "-//W3C//DTD SVG 20010904//EN"
 "http://www.w3.org/TR/2001/REC-SVG-20010904/DTD/svg10.dtd">
<svg version="1.0" xmlns="http://www.w3.org/2000/svg"
 viewBox="0 0 2600.000000 2600.000000"
 preserveAspectRatio="xMidYMid meet">
<metadata>
Created by potrace 1.15, written by Peter Selinger 2001-2017
</metadata>
<g transform="translate(0.000000,2600.000000) scale(0.100000,-0.100000)"
fill="#000000" stroke="none">
<path d="M12365 22024 c-22 -2 -110 -8 -195 -14 -856 -60 -1752 -280 -2575
-635 -190 -81 -583 -279 -770 -387 -649 -374 -1180 -781 -1705 -1307 -1279
-1281 -2079 -2942 -2280 -4731 -31 -279 -41 -434 -47 -760 -31 -1679 471
-3322 1437 -4706 551 -788 1281 -1506 2075 -2040 785 -529 1591 -885 2569
-1136 l88 -23 902 -2207 c495 -1214 904 -2204 907 -2200 4 4 411 998 905 2208
l899 2202 150 37 c82 20 245 66 360 100 1491 451 2808 1323 3813 2528 874
1047 1471 2320 1717 3660 133 728 165 1519 89 2257 -170 1663 -867 3241 -1987
4495 -127 143 -450 467 -599 602 -1353 1226 -3051 1939 -4888 2053 -147 9
-762 12 -865 4z m959 -1269 c1435 -120 2760 -681 3861 -1634 54 -47 180 -165
278 -261 1155 -1128 1852 -2592 2002 -4205 22 -239 30 -726 16 -970 -40 -671
-168 -1304 -388 -1910 -698 -1924 -2224 -3423 -4153 -4080 -287 -97 -557 -169
-895 -235 -165 -33 -317 -63 -338 -67 l-39 -8 -445 -1090 c-244 -599 -448
-1093 -452 -1098 -4 -4 -209 487 -456 1091 l-448 1099 -256 48 c-566 106
-1018 240 -1488 441 -1935 827 -3367 2509 -3882 4560 -206 818 -250 1743 -125
2599 320 2187 1717 4094 3714 5067 807 393 1660 614 2575 668 203 12 700 4
919 -15z"/>
<path d="M12490 17834 c-19 -2 -78 -9 -130 -15 -371 -42 -751 -152 -1098 -319
-992 -478 -1703 -1402 -1907 -2480 -84 -446 -78 -952 16 -1346 166 -694 564
-1232 1194 -1611 268 -161 551 -277 948 -388 l57 -16 0 -389 0 -390 1195 0
1195 0 0 390 0 389 43 11 c119 30 358 107 482 157 418 165 728 365 1016 652
296 296 471 580 600 973 99 301 134 543 134 933 0 283 -6 356 -46 585 -241
1379 -1298 2486 -2664 2790 -264 59 -384 72 -705 75 -162 2 -311 1 -330 -1z
m-945 -2354 c221 -71 401 -213 508 -401 250 -441 82 -990 -369 -1213 -138 -68
-200 -81 -384 -81 -146 0 -174 3 -240 24 -414 130 -671 516 -622 934 46 387
329 685 722 761 14 2 90 3 170 2 117 -3 159 -8 215 -26z m2869 15 c167 -35
302 -109 432 -239 130 -130 204 -265 239 -432 19 -93 19 -268 0 -359 -71 -334
-336 -599 -670 -670 -92 -19 -266 -19 -363 1 -326 67 -599 340 -666 666 -34
163 -15 369 46 517 106 253 349 458 613 514 92 20 277 21 369 2z m-1344 -2137
c162 -281 297 -515 298 -520 2 -4 -269 -8 -601 -8 l-605 0 300 520 c165 286
303 520 306 520 4 0 140 -231 302 -512z"/>
</g>
</svg>
