<?xml version="1.0" standalone="no"?>
<!DOCTYPE svg PUBLIC "-//W3C//DTD SVG 20010904//EN"
 "http://www.w3.org/TR/2001/REC-SVG-20010904/DTD/svg10.dtd">
<svg version="1.0" xmlns="http://www.w3.org/2000/svg"
 width="512.000000pt" height="512.000000pt" viewBox="0 0 512.000000 512.000000"
 preserveAspectRatio="xMidYMid meet">

<g transform="translate(0.000000,512.000000) scale(0.100000,-0.100000)"
fill="#000000" stroke="none">
<path d="M490 3276 c-66 -26 -84 -38 -82 -51 7 -36 85 -204 140 -300 31 -55
57 -103 57 -107 0 -4 -67 -55 -150 -114 -82 -58 -151 -108 -153 -109 -7 -6
111 -160 122 -159 6 1 75 47 153 103 78 55 146 101 152 101 5 0 14 -6 18 -14
22 -39 192 -221 268 -287 47 -41 83 -79 81 -86 -3 -6 -60 -83 -128 -170 -68
-87 -136 -174 -150 -193 l-27 -36 80 -63 c45 -34 82 -61 83 -59 1 2 73 94 159
205 l157 202 68 -43 c92 -60 241 -137 339 -176 l81 -33 -55 -156 c-88 -250
-103 -294 -103 -306 0 -10 179 -80 186 -72 2 1 39 105 83 231 44 126 82 230
84 232 2 3 42 -4 88 -15 100 -23 281 -51 335 -51 22 0 49 -3 62 -6 l22 -6 0
-229 0 -229 100 0 100 0 0 229 0 229 23 6 c12 3 39 6 61 6 54 0 235 28 335 51
46 11 85 18 87 16 2 -2 40 -107 85 -233 44 -126 82 -230 83 -231 7 -8 186 62
186 72 0 7 -9 36 -19 66 -10 30 -46 131 -79 225 l-60 171 82 33 c97 39 246
116 338 176 l68 43 157 -202 c86 -111 158 -203 159 -205 1 -2 38 25 83 59 l80
63 -27 36 c-14 19 -82 106 -150 193 -68 87 -125 164 -128 170 -2 7 34 45 81
86 76 66 246 248 268 287 4 8 13 14 18 14 6 0 74 -46 152 -101 78 -56 147
-102 153 -103 11 -1 129 153 122 159 -2 1 -70 51 -153 109 -82 59 -150 110
-150 114 0 4 24 49 54 100 63 110 154 314 143 323 -8 8 -170 69 -182 69 -4 0
-11 -12 -15 -27 -13 -54 -135 -289 -200 -388 -299 -449 -747 -763 -1270 -891
-299 -73 -671 -73 -970 0 -621 152 -1139 571 -1411 1141 -29 61 -55 122 -59
138 -4 15 -12 27 -19 26 -6 0 -49 -15 -96 -33z"/>
</g>
</svg>
