<?xml version="1.0" standalone="no"?>
<!DOCTYPE svg PUBLIC "-//W3C//DTD SVG 20010904//EN"
 "http://www.w3.org/TR/2001/REC-SVG-20010904/DTD/svg10.dtd">
<svg version="1.0" xmlns="http://www.w3.org/2000/svg"
 width="597.000000pt" height="360.000000pt" viewBox="0 0 597.000000 360.000000"
 preserveAspectRatio="xMidYMid meet">

<g transform="translate(0.000000,360.000000) scale(0.100000,-0.100000)"
fill="#000000" stroke="none">
<path d="M4309 2950 c-347 -10 -411 -19 -508 -71 -60 -31 -751 -580 -811 -643
-33 -35 -35 -41 -34 -104 1 -63 15 -103 216 -620 122 -313 227 -567 242 -587
38 -49 90 -73 167 -76 80 -3 758 19 819 27 25 3 72 19 105 34 69 33 759 581
817 649 46 54 62 114 48 178 -6 27 -62 179 -125 338 -154 395 -265 684 -265
694 0 4 -17 34 -38 67 -28 44 -52 66 -90 87 -66 36 -116 38 -543 27z m406 -41
c-22 -4 -103 -7 -180 -6 l-140 1 105 6 c58 3 139 6 180 7 64 1 69 -1 35 -8z
m-770 -24 c-33 -7 -62 -11 -64 -9 -9 8 46 23 84 23 37 -1 35 -2 -20 -14z m785
-14 c0 -13 -590 -490 -692 -559 -43 -28 -128 -67 -128 -57 0 3 15 19 33 36 20
19 24 27 11 20 -11 -5 -27 -18 -35 -27 -19 -24 -88 -54 -123 -54 l-30 0 30 32
29 31 -46 -32 c-37 -26 -54 -32 -90 -30 -24 1 -59 -2 -76 -6 -27 -6 -33 -5
-33 9 0 16 -2 16 -22 2 -24 -17 -88 -22 -88 -7 0 5 16 21 36 36 19 15 33 29
30 32 -3 3 -27 -13 -54 -36 -41 -34 -57 -41 -93 -41 l-42 0 24 27 24 26 -37
-27 c-26 -20 -46 -26 -70 -24 l-33 3 62 48 c40 31 64 43 69 36 11 -18 97 -5
158 25 63 31 85 58 64 83 -28 35 -201 -17 -229 -69 -16 -30 -147 -130 -174
-132 -14 -2 -25 0 -25 3 0 4 41 42 90 85 50 43 90 80 90 83 0 2 -47 -34 -105
-81 -96 -79 -135 -101 -135 -77 0 5 155 133 345 285 305 245 430 335 444 320
2 -2 2 -6 0 -7 -2 -2 -44 -36 -92 -75 -49 -40 -84 -72 -79 -72 12 0 74 45 147
108 56 49 119 81 132 68 3 -3 -5 -15 -18 -27 -13 -11 -17 -17 -9 -13 8 4 22
13 31 21 19 16 59 26 59 14 0 -18 -63 -53 -88 -48 -26 5 -85 -27 -139 -76 -22
-19 -22 -22 -6 -39 21 -23 60 -23 124 2 54 20 109 64 109 86 0 7 -7 17 -16 22
-13 7 -9 13 20 36 28 21 45 26 74 24 l37 -3 -52 -39 c-29 -22 -50 -42 -48 -44
5 -5 21 5 78 51 19 15 52 30 74 33 37 5 38 5 17 -13 -11 -10 -38 -32 -60 -50
-21 -18 -36 -32 -32 -33 4 0 34 22 66 49 58 49 77 56 136 53 29 -2 29 -2 10
-23 -19 -22 -19 -22 2 -11 11 6 26 18 34 26 8 11 29 16 59 16 l46 -1 -32 -27
c-27 -24 -41 -28 -85 -27 -42 1 -61 -4 -93 -26 -91 -62 -98 -99 -18 -99 82 0
192 65 177 105 -3 7 13 26 34 44 31 24 49 31 83 30 l44 0 -39 -32 c-86 -69
-97 -86 -23 -32 43 31 88 60 100 65 29 12 57 12 57 1z m168 -31 c25 -25 70
-120 57 -120 -3 0 -16 22 -29 49 -14 26 -39 60 -56 75 -19 16 -26 26 -17 26 9
0 29 -13 45 -30z m-1098 -19 c0 -5 -53 -49 -117 -97 -65 -48 -210 -162 -322
-253 -242 -197 -282 -228 -217 -167 78 74 259 224 426 352 85 65 171 131 190
146 40 31 40 31 40 19z m1067 -23 c12 -13 35 -61 51 -108 16 -47 96 -254 177
-460 150 -381 198 -511 191 -517 -3 -4 -83 170 -131 287 -15 36 -54 124 -87
195 -33 72 -85 193 -115 270 -49 127 -120 294 -129 304 -2 2 -7 2 -10 -1 -3
-4 7 -32 21 -65 15 -32 53 -124 86 -205 32 -81 87 -209 123 -285 35 -76 92
-205 125 -287 34 -82 75 -174 91 -205 26 -53 27 -58 13 -85 -8 -15 -18 -24
-23 -20 -8 9 -359 825 -435 1012 -21 51 -40 90 -42 88 -8 -8 219 -557 401
-970 62 -140 65 -151 50 -167 -9 -10 -20 -17 -23 -14 -4 2 -25 48 -46 101 -22
54 -41 91 -43 82 -2 -8 15 -56 36 -106 38 -87 39 -92 21 -108 -24 -22 -32 -15
-60 56 -13 33 -27 60 -31 60 -11 0 -11 -2 22 -76 29 -63 29 -68 14 -85 -22
-25 -33 -24 -43 4 -25 64 -62 139 -66 135 -3 -3 11 -43 31 -89 l36 -83 -23
-19 -24 -19 -37 80 c-20 44 -94 223 -163 398 -237 598 -260 653 -263 640 -2
-7 26 -85 62 -172 35 -88 112 -283 171 -434 59 -151 132 -331 161 -398 53
-121 57 -142 29 -142 -14 0 -153 306 -240 530 -29 74 -71 175 -94 224 -22 49
-59 143 -82 209 -40 119 -68 184 -69 160 0 -18 83 -258 115 -328 14 -33 71
-168 127 -299 55 -132 128 -302 163 -378 63 -138 63 -138 42 -153 -20 -14 -22
-13 -35 10 -35 68 -226 522 -328 780 -131 331 -132 334 -133 318 -2 -34 212
-570 373 -932 47 -106 86 -197 86 -202 0 -5 -9 -13 -20 -19 -17 -9 -22 -6 -35
22 -155 348 -203 460 -260 603 -37 94 -69 172 -72 175 -28 27 114 -334 257
-649 73 -161 79 -177 63 -188 -9 -7 -20 -13 -23 -13 -3 0 -23 38 -44 85 -21
47 -41 83 -44 80 -3 -3 12 -43 33 -90 20 -46 35 -92 31 -100 -12 -32 -38 -10
-64 53 -14 34 -29 62 -33 62 -5 0 5 -30 21 -66 34 -75 36 -89 14 -98 -12 -4
-24 12 -50 70 -20 42 -38 74 -40 71 -3 -3 11 -40 31 -84 l36 -78 -23 -19 -23
-18 -24 53 c-62 142 -203 493 -307 764 -130 342 -132 347 -133 324 -2 -34 261
-710 393 -1013 31 -71 55 -135 52 -143 -11 -28 -37 -12 -57 35 -109 251 -248
589 -299 727 -68 187 -129 335 -142 350 -14 15 -9 -24 7 -54 8 -16 70 -172
139 -347 116 -299 199 -499 277 -672 33 -72 33 -74 14 -88 -10 -8 -22 -14 -26
-14 -12 0 -275 645 -389 955 -68 183 -67 181 -76 172 -16 -15 334 -906 426
-1087 24 -46 21 -81 -5 -60 -8 7 -15 17 -15 23 0 5 -36 91 -79 191 -92 208
-158 377 -262 666 -40 113 -75 198 -77 188 -2 -9 8 -42 21 -75 14 -32 45 -116
70 -188 60 -173 82 -228 172 -440 118 -276 155 -366 155 -373 0 -3 -11 5 -25
18 -14 13 -25 27 -25 32 0 5 -56 152 -124 326 -233 597 -276 712 -276 744 0
45 27 90 77 130 23 18 120 97 216 175 96 78 212 170 258 204 45 34 111 86 146
115 35 30 71 54 81 54 10 0 28 -10 39 -22z m321 -668 c117 -288 142 -356 141
-378 0 -9 -10 10 -23 43 -13 33 -80 201 -149 373 -70 171 -127 315 -126 320 1
14 62 -124 157 -358z m-1130 143 c-2 -5 -14 -29 -26 -55 -26 -55 -37 -62 -28
-18 3 17 4 30 2 30 -2 0 -23 -7 -46 -15 -81 -29 -84 -15 -5 24 77 38 111 49
103 34z m-333 -84 l60 -1 -50 -8 c-92 -13 -596 -17 -583 -4 10 9 315 22 418
18 52 -2 122 -4 155 -5z m-713 -86 c2 -29 -1 -48 -5 -44 -13 13 -20 78 -11
108 9 32 11 22 16 -64z m952 55 c3 -13 6 -33 6 -45 0 -31 44 -153 170 -468 61
-154 138 -352 171 -440 33 -88 69 -175 80 -193 23 -40 24 -52 3 -52 -10 0 -42
56 -95 166 -44 92 -82 164 -85 162 -2 -3 23 -67 57 -144 86 -197 82 -181 52
-187 -22 -4 -27 1 -44 42 -64 149 -102 231 -105 228 -2 -2 18 -61 46 -130 27
-69 50 -131 50 -137 0 -5 -11 -10 -24 -10 -21 0 -30 15 -76 118 -86 192 -86
162 1 -42 16 -37 29 -70 29 -72 0 -2 -15 -4 -32 -4 -32 0 -35 3 -85 112 -54
114 -84 149 -37 42 14 -32 35 -80 45 -106 l19 -48 -34 0 c-32 0 -34 3 -76 95
-69 154 -73 131 -6 -32 14 -35 26 -65 26 -68 0 -3 -13 -5 -28 -5 -25 0 -32 9
-82 111 -53 107 -88 161 -54 82 46 -108 74 -177 74 -184 0 -5 -11 -9 -25 -9
-22 0 -31 14 -81 120 -32 66 -59 119 -61 116 -2 -2 17 -53 42 -114 25 -61 45
-113 45 -116 0 -3 -15 -6 -33 -6 -32 0 -33 1 -87 126 -30 70 -55 123 -57 118
-2 -5 17 -61 42 -123 24 -63 44 -116 42 -116 -1 -1 -16 -5 -33 -8 l-31 -6 -58
135 c-32 74 -59 133 -62 131 -2 -3 18 -60 46 -128 51 -128 51 -139 4 -139 -14
0 -24 8 -29 23 -12 39 -96 228 -100 224 -2 -2 17 -56 41 -121 25 -65 45 -120
45 -123 0 -2 -10 -3 -21 -1 -17 2 -32 27 -68 110 -50 114 -77 160 -41 68 49
-125 58 -150 49 -150 -14 0 -47 58 -65 115 -16 46 -342 883 -378 967 -14 32
-23 118 -13 118 2 0 19 -7 36 -16 29 -14 63 -16 269 -10 414 11 571 22 590 41
11 10 20 4 26 -17z m156 -305 c50 -133 113 -295 141 -360 75 -173 130 -315
126 -319 -4 -5 -178 395 -240 551 -42 108 -127 353 -127 369 0 21 12 -9 100
-241z m-930 -228 c85 -212 138 -350 155 -400 4 -13 1 -11 -8 5 -34 58 -258
623 -257 647 1 17 22 -32 110 -252z m2000 -121 c-104 -106 -621 -521 -620
-497 0 4 58 53 127 108 253 200 370 295 453 369 47 41 87 75 90 75 2 1 -20
-24 -50 -55z m-707 -543 c-2 -3 -16 8 -31 24 l-27 28 31 -24 c17 -13 30 -26
27 -28z m-1008 -19 c-7 -7 -34 18 -47 42 -8 16 -3 14 21 -8 17 -16 29 -32 26
-34z m760 -32 c-87 -10 -654 -22 -639 -15 19 9 332 22 529 22 134 0 162 -2
110 -7z"/>
<path d="M4110 2609 c-145 -66 -106 -145 44 -88 64 24 113 73 95 95 -17 20
-87 17 -139 -7z"/>
<path d="M3765 2611 c-77 -19 -158 -83 -140 -111 8 -13 92 -12 130 3 56 22 96
52 102 75 9 39 -22 50 -92 33z"/>
<path d="M3920 2436 c-57 -15 -117 -51 -125 -74 -3 -10 -27 -35 -54 -55 -51
-39 -90 -79 -61 -62 8 5 35 25 60 45 40 32 50 36 88 32 58 -6 122 13 166 50
43 35 46 55 10 68 -30 12 -27 12 -84 -4z"/>
<path d="M3642 2304 l-47 -47 45 38 c62 52 65 55 56 55 -4 0 -28 -21 -54 -46z"/>
<path d="M4720 2675 c0 -5 14 -46 31 -89 24 -63 28 -81 17 -87 -7 -5 -15 -9
-18 -9 -3 0 -18 36 -35 81 -16 44 -31 76 -33 70 -2 -6 9 -43 24 -81 25 -65 26
-73 14 -110 -14 -43 -24 -44 -34 -4 -12 45 -68 160 -73 147 -2 -6 5 -29 15
-50 11 -21 36 -87 55 -148 19 -60 54 -150 77 -200 85 -182 160 -377 160 -417
0 -80 41 -133 97 -126 37 4 63 45 70 109 6 61 4 66 -120 348 -40 90 -73 156
-75 148 -2 -8 26 -77 61 -153 85 -183 84 -179 48 -179 -28 0 -31 5 -86 143
-31 78 -61 142 -66 142 -12 0 -16 10 49 -151 58 -142 58 -144 41 -172 -20 -34
-17 -38 -67 88 -22 55 -54 131 -71 168 -17 38 -31 71 -31 73 0 2 10 4 23 4 53
0 92 89 76 172 -4 24 -8 46 -9 49 0 4 -13 20 -29 35 -16 16 -43 63 -60 104
-33 78 -51 112 -51 95z"/>
<path d="M4391 2420 c-1 -8 17 -60 39 -114 22 -55 40 -101 40 -104 0 -2 -8 -1
-17 3 -10 4 -25 8 -33 9 -9 2 -30 41 -50 92 -21 53 -36 81 -38 68 -2 -11 11
-53 28 -93 25 -57 29 -76 19 -87 -6 -8 -15 -14 -19 -14 -5 0 -23 39 -42 88
-18 48 -34 80 -36 71 -2 -9 13 -56 32 -105 22 -55 32 -93 27 -102 -6 -10 -21
17 -49 89 -56 142 -53 95 4 -60 25 -69 51 -141 57 -160 7 -19 24 -43 39 -54
54 -40 106 12 117 118 4 40 3 61 -3 58 -5 -4 -7 1 -3 10 3 9 -16 71 -44 139
-69 169 -68 165 -68 148z"/>
<path d="M4500 1946 c0 -2 27 -67 60 -144 33 -78 60 -145 60 -151 0 -6 -8 -15
-18 -20 -17 -9 -25 5 -77 130 -53 127 -75 168 -75 140 0 -6 27 -74 60 -151 62
-146 65 -156 51 -178 -6 -10 -31 43 -77 160 -37 95 -74 180 -82 188 -12 13
-13 12 -7 -10 4 -14 40 -106 80 -205 39 -99 75 -200 79 -225 13 -88 65 -137
115 -111 74 40 71 228 -3 262 -17 8 -39 49 -87 165 -35 85 -67 154 -71 154 -5
0 -8 -2 -8 -4z"/>
<path d="M3774 2077 c7 -31 35 -97 40 -97 3 0 -4 27 -16 60 -19 58 -36 83 -24
37z"/>
<path d="M3921 2085 c0 -11 9 -40 19 -65 24 -58 24 -31 0 35 -10 28 -19 41
-19 30z"/>
<path d="M3165 2042 c19 -61 53 -142 54 -125 1 16 -49 156 -60 168 -5 5 -2
-14 6 -43z"/>
<path d="M3641 2070 c14 -31 19 -36 19 -24 0 6 -7 19 -16 30 -14 18 -14 18 -3
-6z"/>
<path d="M3701 2085 c0 -5 6 -21 14 -35 8 -14 14 -20 14 -15 0 6 -6 21 -14 35
-8 14 -14 21 -14 15z"/>
<path d="M3856 2068 c4 -13 15 -41 26 -63 22 -48 17 -8 -7 48 -17 40 -31 51
-19 15z"/>
<path d="M3225 2060 c12 -39 33 -90 39 -90 7 0 -25 93 -36 105 -7 7 -8 1 -3
-15z"/>
<path d="M3296 2050 c4 -19 10 -42 15 -50 15 -27 10 22 -6 55 l-15 30 6 -35z"/>
<path d="M3546 2067 c3 -10 9 -15 12 -12 3 3 0 11 -7 18 -10 9 -11 8 -5 -6z"/>
<path d="M3100 2068 c0 -15 62 -178 71 -184 5 -3 -5 32 -21 77 -29 79 -49 121
-50 107z"/>
<path d="M3372 2039 c6 -16 12 -28 14 -26 5 5 -13 57 -20 57 -3 0 0 -14 6 -31z"/>
<path d="M3436 2055 c4 -8 8 -15 10 -15 2 0 4 7 4 15 0 8 -4 15 -10 15 -5 0
-7 -7 -4 -15z"/>
<path d="M3424 1849 c-28 -31 -24 -96 9 -152 71 -121 207 -131 207 -14 0 54
-47 137 -93 166 -45 27 -98 27 -123 0z"/>
<path d="M3876 1439 c-49 -38 -28 -146 41 -211 81 -76 163 -58 163 37 0 75
-56 159 -123 184 -40 15 -51 14 -81 -10z"/>
<path d="M1239 2877 c-78 -29 -106 -62 -190 -229 -32 -64 -116 -224 -185 -355
-70 -131 -142 -268 -161 -304 -54 -110 -57 -153 -47 -629 10 -407 11 -427 32
-467 16 -31 34 -47 74 -66 29 -14 280 -87 558 -162 278 -75 548 -148 600 -163
171 -49 241 -36 301 54 68 102 409 753 458 874 l26 65 -3 455 c-1 284 -6 467
-13 487 -12 38 -65 87 -116 108 -21 9 -238 70 -483 136 -245 67 -506 138 -580
159 -165 46 -223 54 -271 37z m38 -34 c-4 -3 -25 -14 -48 -25 -36 -15 -40 -16
-28 -2 14 17 45 32 68 33 8 1 11 -2 8 -6z m228 -102 c79 -22 196 -51 262 -66
118 -26 556 -138 688 -177 116 -33 180 -84 93 -73 -49 6 -42 1 20 -15 40 -10
42 -12 42 -49 l0 -38 -87 18 c-99 20 -115 22 -93 10 8 -5 52 -17 98 -26 l82
-18 0 -39 c0 -33 -3 -38 -17 -34 -10 3 -36 8 -58 11 -29 5 -36 4 -25 -4 8 -6
34 -13 57 -17 45 -7 50 -13 49 -59 -1 -32 -5 -33 -66 -20 -49 10 -28 -8 23
-20 38 -9 42 -13 45 -44 4 -37 4 -37 -83 -15 -20 5 -26 4 -21 -5 4 -6 15 -11
25 -11 10 0 32 -5 50 -11 25 -9 31 -16 31 -41 0 -29 -2 -30 -32 -25 -18 4 -44
9 -57 13 -16 5 -22 4 -18 -3 4 -6 29 -16 57 -23 50 -12 50 -12 50 -52 0 -39
-1 -40 -27 -34 -16 3 -44 8 -63 11 -43 7 -17 -7 48 -24 42 -12 42 -12 42 -57
0 -35 -3 -45 -14 -41 -79 31 -221 63 -161 37 11 -5 55 -19 98 -31 76 -22 77
-22 77 -55 0 -19 -3 -34 -7 -34 -5 0 -48 11 -98 25 -105 29 -95 28 -95 15 0
-5 8 -10 18 -10 9 0 53 -11 96 -24 81 -23 99 -39 88 -79 -3 -12 -10 -16 -21
-12 -37 14 -212 56 -221 53 -6 -2 46 -19 115 -38 115 -31 125 -36 125 -58 0
-13 -3 -22 -7 -20 -71 37 -177 67 -948 272 -239 63 -315 89 -315 107 0 5 6 7
13 4 58 -19 359 -96 367 -93 6 2 -85 30 -201 62 -197 56 -213 62 -230 90 -10
16 -17 32 -15 34 2 2 66 -13 141 -33 75 -20 139 -34 142 -31 7 7 9 6 -154 52
-132 36 -133 37 -133 66 0 23 4 28 18 24 96 -27 143 -38 148 -33 4 3 -20 13
-52 22 -114 32 -109 29 -112 67 l-3 36 73 -19 c84 -21 91 -22 84 -10 -4 5 -40
17 -81 27 -75 18 -75 18 -75 51 0 18 1 33 3 33 1 0 34 -9 72 -20 38 -11 74
-20 78 -20 18 0 -5 18 -30 25 -117 28 -130 34 -131 65 -1 35 8 37 88 15 63
-17 83 -19 76 -6 -3 4 -34 14 -68 21 -89 18 -98 25 -98 66 0 29 3 34 18 30 37
-11 137 -36 146 -36 26 0 -14 17 -82 36 l-77 20 -3 37 c-2 20 0 37 5 37 4 0
43 -11 86 -25 50 -15 77 -20 74 -12 -2 7 -40 23 -85 36 -81 24 -82 25 -82 58
0 18 5 33 10 33 6 0 43 -9 82 -20 39 -11 74 -17 77 -14 9 9 -16 19 -94 39
l-75 18 0 39 c0 33 3 38 18 34 9 -2 77 -22 149 -42 129 -37 132 -38 103 -51
-17 -6 -33 -19 -36 -28 -4 -9 -13 -14 -20 -11 -8 3 -14 1 -14 -3 0 -5 6 -11
14 -14 7 -3 16 -19 19 -35 12 -58 99 -122 167 -122 37 0 80 39 80 71 0 28 -34
82 -68 110 -17 14 -20 20 -9 16 13 -5 17 -3 15 5 -3 7 -91 38 -196 68 -105 31
-195 59 -199 64 -10 10 25 36 50 36 10 0 83 -18 162 -39z m-270 -371 c3 -180
2 -255 -5 -235 -5 17 -12 156 -14 310 -4 183 -2 264 4 235 5 -25 12 -164 15
-310z m-86 124 c-17 -30 -29 -58 -26 -61 3 -3 17 17 31 44 l25 48 1 -43 c0
-32 -10 -61 -36 -108 -20 -36 -34 -67 -32 -70 3 -2 18 20 34 51 16 30 32 55
37 55 14 0 6 -65 -13 -110 -20 -44 -20 -44 -1 -20 l20 25 0 -168 c1 -98 5
-173 11 -180 6 -7 21 -28 34 -48 l23 -35 -33 -10 c-31 -10 -33 -9 -36 15 -2
20 -9 11 -31 -44 -16 -39 -93 -191 -172 -340 -78 -148 -159 -303 -179 -344
-49 -96 -59 -84 -12 15 43 91 41 112 -3 28 l-30 -59 -1 47 c0 38 10 67 50 145
27 53 48 98 46 100 -1 2 -23 -33 -48 -77 -25 -44 -48 -77 -51 -73 -4 3 -7 -53
-7 -125 0 -73 -4 -132 -9 -132 -14 0 -21 155 -19 465 1 276 13 326 17 75 l2
-95 24 53 c25 54 47 122 39 122 -2 0 -14 -19 -26 -42 l-23 -43 -3 41 c-2 24 5
62 18 93 26 66 26 98 0 51 l-19 -35 -1 32 c0 18 9 56 20 84 12 28 19 57 17 63
-3 6 -10 -2 -16 -18 -6 -16 -14 -26 -17 -23 -14 13 14 87 76 201 38 69 131
245 207 391 l138 267 3 -77 c3 -70 0 -81 -29 -131z m-100 44 c-18 -35 -78
-146 -134 -248 -56 -102 -115 -209 -130 -238 -16 -28 -30 -50 -33 -48 -8 9
311 596 324 596 3 0 -10 -28 -27 -62z m1529 -32 c15 -8 38 -27 52 -42 l25 -28
-35 25 c-19 14 -48 33 -65 42 -16 9 -24 16 -17 17 7 0 25 -6 40 -14z m90 -701
c-1 -143 -3 -201 -8 -165 -5 30 -8 170 -7 310 0 188 2 231 8 165 4 -49 7 -189
7 -310z m-1365 102 c23 -24 53 -50 67 -59 l25 -17 -35 5 c-19 3 -58 -1 -87 -9
-63 -17 -62 -5 2 14 49 15 53 20 30 39 -20 17 -58 70 -51 70 4 0 25 -19 49
-43z m-126 -433 c-79 -170 -171 -363 -204 -429 -67 -133 -79 -165 -64 -165 5
0 12 9 16 20 3 11 58 127 122 257 63 131 158 328 210 438 51 109 95 201 97
203 6 6 730 -181 921 -239 244 -73 270 -83 268 -106 -3 -28 -60 -153 -220
-488 -72 -148 -138 -292 -148 -318 -18 -47 -55 -87 -81 -87 -19 0 -19 1 25 88
21 42 64 136 96 207 31 72 91 202 132 290 115 243 152 338 123 309 -6 -6 -100
-208 -209 -449 -109 -242 -204 -441 -210 -443 -20 -7 -61 8 -61 21 0 6 57 129
126 272 155 320 284 600 284 615 0 25 -24 -7 -52 -69 -17 -36 -58 -125 -93
-198 -35 -72 -114 -242 -176 -378 l-113 -246 -30 7 c-17 3 -33 8 -35 10 -2 2
52 124 121 271 136 291 147 318 128 311 -10 -3 -125 -249 -259 -555 -9 -19
-14 -21 -42 -13 -17 5 -34 11 -36 14 -3 3 52 127 121 277 114 247 144 322 117
294 -5 -6 -65 -134 -132 -285 -68 -151 -124 -277 -125 -278 -5 -8 -64 10 -64
19 0 5 61 141 135 301 74 161 132 295 127 300 -6 6 -162 -320 -261 -545 -23
-53 -27 -58 -50 -52 -14 4 -30 10 -35 15 -4 5 50 132 124 287 138 290 270 585
270 605 0 34 -18 -4 -401 -848 -16 -36 -22 -41 -44 -36 -14 2 -28 8 -30 13 -3
4 28 78 69 164 82 171 97 208 75 187 -8 -7 -48 -86 -90 -175 l-75 -162 -33 2
c-18 0 -34 3 -37 5 -2 3 29 79 70 169 66 143 82 188 60 166 -3 -3 -37 -77 -74
-164 -54 -124 -73 -159 -89 -161 -33 -5 -35 22 -5 79 59 116 124 273 116 281
-5 5 -41 -69 -82 -164 -40 -95 -75 -175 -77 -178 -3 -4 -134 28 -141 34 -1 2
14 38 33 80 38 84 40 90 24 81 -6 -4 -26 -40 -44 -81 -19 -41 -40 -74 -47 -74
-7 1 -25 6 -40 13 l-28 12 25 53 c32 69 17 67 -18 -3 -26 -53 -27 -54 -57 -44
-36 13 -36 18 -9 70 11 22 18 46 16 52 -2 7 -17 -14 -33 -46 -27 -55 -30 -57
-59 -51 -16 3 -32 8 -35 11 -2 2 15 42 38 89 l42 85 25 -29 c29 -35 106 -58
157 -47 87 19 104 40 198 255 35 80 96 217 137 304 40 87 73 163 73 167 0 28
-22 -1 -55 -73 -70 -155 -217 -483 -226 -506 l-9 -23 -30 30 -30 30 135 282
c74 156 132 285 130 288 -12 11 -38 -38 -156 -297 l-124 -273 -29 6 c-16 3
-31 7 -33 9 -2 2 47 111 108 242 149 320 160 346 148 342 -6 -2 -72 -135 -147
-295 l-136 -292 -44 -14 c-23 -8 -42 -12 -40 -8 2 3 72 142 156 309 83 167
152 308 152 313 0 35 -41 -41 -239 -440 l-222 -448 -75 17 c-127 30 -134 -2
84 407 105 197 204 385 221 419 28 56 56 92 65 83 2 -2 -94 -195 -215 -429
-120 -234 -219 -429 -219 -435 0 -20 21 17 120 210 288 562 366 700 378 666 1
-4 -62 -147 -141 -317z m-61 193 c-45 -109 -355 -730 -356 -714 -1 28 165 375
320 670 43 80 61 102 36 44z m1312 -102 c35 -8 75 -22 90 -30 l27 -15 -30 7
c-46 10 -171 51 -160 52 6 0 38 -6 73 -14z m216 -132 c-8 -31 -52 -123 -59
-123 -5 0 39 122 50 141 11 17 15 9 9 -18z m-98 -59 c-22 -61 -77 -177 -81
-172 -3 2 16 52 42 111 46 105 67 138 39 61z m-161 -428 c-78 -176 -186 -375
-220 -405 -21 -18 -40 -29 -43 -26 -4 4 1 11 11 16 27 15 95 122 145 228 50
105 122 241 127 241 2 0 -7 -24 -20 -54z m-1495 -118 c62 -21 74 -27 43 -23
-50 6 -153 44 -153 57 0 5 5 6 12 2 7 -4 50 -20 98 -36z"/>
<path d="M1730 2600 c0 -6 7 -10 15 -10 8 0 15 2 15 4 0 2 -7 6 -15 10 -8 3
-15 1 -15 -4z"/>
<path d="M1795 2580 c3 -5 11 -10 16 -10 6 0 7 5 4 10 -3 6 -11 10 -16 10 -6
0 -7 -4 -4 -10z"/>
<path d="M1480 2481 c0 -11 31 -24 39 -16 3 3 -1 10 -9 15 -19 12 -30 12 -30
1z"/>
<path d="M2180 2430 c-72 -72 71 -225 182 -194 85 25 50 143 -57 193 -56 26
-99 27 -125 1z"/>
<path d="M2428 2443 c7 -3 16 -2 19 1 4 3 -2 6 -13 5 -11 0 -14 -3 -6 -6z"/>
<path d="M2468 2433 c6 -2 18 -2 25 0 6 3 1 5 -13 5 -14 0 -19 -2 -12 -5z"/>
<path d="M1485 2390 c3 -5 16 -10 28 -10 18 0 19 2 7 10 -20 13 -43 13 -35 0z"/>
<path d="M1588 2363 c7 -3 16 -2 19 1 4 3 -2 6 -13 5 -11 0 -14 -3 -6 -6z"/>
<path d="M1485 2300 c3 -5 16 -10 28 -9 21 0 21 1 2 9 -28 12 -37 12 -30 0z"/>
<path d="M1855 2285 c-30 -29 -31 -44 -5 -95 23 -46 90 -89 149 -97 33 -5 44
-1 66 21 22 22 26 33 21 58 -9 45 -49 93 -99 117 -58 28 -102 27 -132 -4z"/>
<path d="M1588 2273 c7 -3 16 -2 19 1 4 3 -2 6 -13 5 -11 0 -14 -3 -6 -6z"/>
<path d="M2430 2256 c0 -8 51 -13 56 -5 3 5 -9 9 -25 9 -17 0 -31 -2 -31 -4z"/>
<path d="M1485 2210 c3 -5 16 -10 28 -9 21 0 21 1 2 9 -28 12 -37 12 -30 0z"/>
<path d="M2445 2160 c27 -12 43 -12 25 0 -8 5 -22 9 -30 9 -10 0 -8 -3 5 -9z"/>
<path d="M1493 2128 c21 -9 27 -17 23 -33 -3 -11 -6 -26 -6 -32 0 -7 -12 -13
-27 -14 l-28 -1 31 -11 c17 -7 44 -27 60 -46 33 -39 95 -70 142 -71 38 0 82
37 82 70 0 77 -113 162 -193 146 -40 -8 -45 -8 -82 -2 l-30 6 28 -12z"/>
<path d="M2355 2100 c3 -5 14 -10 23 -10 15 0 15 2 2 10 -20 13 -33 13 -25 0z"/>
<path d="M2435 2080 c3 -5 16 -10 28 -9 21 0 21 1 2 9 -28 12 -37 12 -30 0z"/>
<path d="M2287 2039 c7 -7 15 -10 18 -7 3 3 -2 9 -12 12 -14 6 -15 5 -6 -5z"/>
<path d="M2355 2020 c3 -5 13 -10 21 -10 8 0 12 5 9 10 -3 6 -13 10 -21 10 -8
0 -12 -4 -9 -10z"/>
<path d="M2430 2000 c8 -5 24 -10 35 -10 17 0 17 2 5 10 -8 5 -24 10 -35 10
-17 0 -17 -2 -5 -10z"/>
<path d="M2180 1930 c-62 -62 46 -190 160 -190 101 0 106 91 8 174 -36 32 -48
36 -95 36 -40 0 -58 -5 -73 -20z"/>
<path d="M2350 1929 c0 -5 9 -9 20 -9 11 0 20 2 20 4 0 2 -9 6 -20 9 -11 3
-20 1 -20 -4z"/>
<path d="M2421 1906 c12 -10 60 -16 54 -6 -3 5 -18 10 -32 10 -15 0 -24 -2
-22 -4z"/>
<path d="M1748 1893 c7 -3 16 -2 19 1 4 3 -2 6 -13 5 -11 0 -14 -3 -6 -6z"/>
<path d="M1758 1813 c7 -3 16 -2 19 1 4 3 -2 6 -13 5 -11 0 -14 -3 -6 -6z"/>
<path d="M1127 2553 c-21 -43 -30 -69 -21 -58 23 30 66 115 62 126 -2 5 -20
-25 -41 -68z"/>
<path d="M897 2111 c-19 -33 -38 -81 -32 -81 7 0 57 101 53 106 -2 2 -12 -9
-21 -25z"/>
<path d="M988 2063 c-26 -30 -48 -80 -70 -161 -45 -171 3 -223 62 -65 28 74
46 196 34 223 -9 21 -10 21 -26 3z"/>
<path d="M817 1958 c-24 -50 -21 -70 4 -31 11 18 19 40 17 50 -2 13 -8 8 -21
-19z"/>
<path d="M826 1846 c-10 -21 -15 -40 -12 -43 7 -8 38 57 33 70 -3 7 -12 -5
-21 -27z"/>
<path d="M835 1710 c-9 -17 -15 -36 -13 -42 2 -6 12 6 22 26 22 46 14 60 -9
16z"/>
<path d="M847 1571 c-9 -16 -17 -35 -17 -43 1 -7 10 4 21 25 24 46 21 59 -4
18z"/>
<path d="M790 1463 c-14 -27 -28 -49 -32 -51 -5 -2 -8 -22 -8 -45 l1 -42 13
35 c7 19 23 57 35 83 30 64 22 80 -9 20z"/>
<path d="M1668 1572 c-20 -48 -73 -168 -118 -267 -113 -251 -232 -527 -228
-531 6 -5 378 814 393 864 3 12 3 22 -2 22 -4 0 -25 -40 -45 -88z"/>
<path d="M1782 1638 c-7 -8 -46 -93 -87 -189 -66 -154 -79 -177 -112 -199 -51
-35 -68 -71 -51 -106 28 -57 136 -82 212 -50 47 19 79 64 72 99 -4 19 4 49 25
95 42 91 129 293 129 299 0 2 -5 3 -10 1 -6 -2 -44 -77 -86 -168 -41 -91 -78
-168 -82 -171 -4 -4 -21 0 -39 7 l-32 14 74 154 c82 173 93 200 76 195 -6 -2
-46 -81 -89 -174 -71 -157 -79 -170 -105 -173 -26 -3 -28 -1 -22 20 4 13 16
39 25 58 10 19 41 90 70 158 48 116 60 163 32 130z"/>
<path d="M2084 1470 c-21 -44 -47 -86 -61 -95 -86 -57 -23 -155 100 -155 108
0 182 66 145 130 -14 25 -14 30 8 71 24 46 31 85 14 74 -5 -3 -20 -28 -31 -56
-12 -27 -26 -49 -31 -49 -8 0 -47 17 -56 25 -2 2 6 22 18 45 12 23 20 49 18
58 -2 10 -15 -8 -32 -45 -25 -55 -31 -61 -62 -65 -40 -5 -42 4 -13 52 26 42
41 90 28 90 -5 0 -25 -36 -45 -80z"/>
</g>
</svg>
