<?xml version="1.0" standalone="no"?>
<!DOCTYPE svg PUBLIC "-//W3C//DTD SVG 20010904//EN"
 "http://www.w3.org/TR/2001/REC-SVG-20010904/DTD/svg10.dtd">
<svg version="1.0" xmlns="http://www.w3.org/2000/svg"
 width="720.000000pt" height="326.000000pt" viewBox="0 0 720.000000 326.000000"
 preserveAspectRatio="xMidYMid meet">

<g transform="translate(0.000000,326.000000) scale(0.100000,-0.100000)"
fill="#000000" stroke="none">
<path d="M2158 3245 c-6 -5 -547 -27 -733 -29 -317 -5 -999 -61 -1014 -84 -3
-5 -34 -12 -68 -15 -34 -3 -72 -12 -85 -21 -12 -9 -34 -16 -48 -16 -14 -1 -41
-13 -61 -28 -146 -108 -126 -78 -145 -228 -5 -47 21 -95 74 -130 78 -53 562
-133 562 -93 0 5 5 7 11 3 6 -3 79 -10 162 -15 186 -11 292 -31 377 -72 64
-30 67 -31 230 -32 145 -1 400 -14 400 -20 0 -1 -7 -22 -15 -45 -15 -42 -15
-44 19 -110 46 -89 107 -170 129 -170 10 0 47 -16 83 -36 39 -21 79 -36 99
-36 20 0 36 -6 39 -14 3 -8 13 -14 23 -14 17 -1 17 -2 -1 -15 -21 -16 -15 -45
9 -45 19 0 19 -7 0 -26 -31 -31 -11 -104 28 -104 16 0 18 -3 8 -9 -7 -5 -15
-25 -17 -45 -4 -31 -2 -36 16 -36 18 0 19 -3 10 -20 -8 -15 -6 -28 9 -57 28
-56 90 -123 112 -123 14 0 19 -7 19 -29 0 -15 5 -42 11 -60 9 -25 15 -30 30
-26 22 7 26 -10 5 -18 -19 -8 -8 -57 13 -57 13 0 14 -2 2 -9 -12 -8 -12 -14
-1 -43 60 -154 226 -348 296 -348 23 0 24 -1 11 -27 -22 -44 -30 -100 -28
-203 2 -68 6 -98 16 -106 10 -7 11 -14 4 -21 -12 -12 59 -110 93 -130 39 -22
153 -53 194 -53 22 0 55 -5 74 -10 47 -14 296 -14 340 -1 19 6 82 11 140 11
63 0 130 6 165 16 88 22 417 30 459 10 92 -43 407 -98 600 -104 71 -2 113 -8
122 -16 26 -26 458 -42 564 -20 36 7 89 15 118 19 52 6 180 49 255 86 20 10
37 14 37 8 0 -5 11 -9 23 -9 18 0 28 -10 42 -39 9 -21 37 -58 60 -81 41 -40
46 -42 87 -37 37 5 41 4 25 -8 -27 -20 -12 -22 101 -16 56 3 102 2 102 -2 0
-22 101 -97 129 -97 12 0 21 -4 21 -10 0 -10 -13 -14 -40 -11 -8 1 -1 -7 15
-18 17 -12 39 -21 50 -22 18 0 17 -1 -4 -10 -13 -5 -33 -6 -45 -3 -21 7 -21 7
-1 -15 15 -17 28 -22 52 -19 18 2 33 1 33 -3 0 -3 21 -3 47 2 32 6 50 5 60 -3
9 -7 47 -11 101 -10 48 1 122 -3 164 -9 43 -6 86 -8 95 -4 10 4 34 9 53 11 37
4 70 34 70 63 0 21 -25 34 -102 56 -32 8 -67 25 -78 37 -17 18 -30 21 -90 20
-38 0 -72 3 -75 9 -4 5 -22 9 -41 9 -28 0 -35 4 -32 17 3 15 16 18 81 21 50 2
77 0 77 -7 0 -6 11 -11 24 -11 13 0 49 -14 80 -31 75 -40 119 -38 124 6 2 17
9 37 16 45 21 25 37 97 35 153 -2 63 -13 87 -39 87 -10 0 -29 14 -41 31 -18
26 -19 33 -8 40 8 5 19 9 25 9 16 0 23 33 17 80 -3 22 -1 45 5 52 5 7 15 53
21 102 11 80 10 90 -5 108 -14 15 -15 18 -3 13 11 -4 19 5 29 34 17 51 9 71
-30 71 -16 0 -30 5 -30 10 0 6 15 10 34 10 l34 0 4 113 c3 61 1 117 -4 124 -6
7 -5 20 1 32 6 11 11 38 11 61 0 35 -4 42 -27 51 -14 5 -32 8 -38 5 -16 -6
-28 -115 -27 -241 1 -120 -8 -225 -19 -225 -4 0 -9 15 -11 33 -3 28 -7 33 -38
37 l-35 5 -2 170 c-1 94 -2 183 -2 198 -1 25 -4 28 -28 25 -32 -3 -31 -1 -34
-165 -1 -57 -5 -103 -9 -103 -4 0 -7 -25 -7 -55 0 -52 1 -55 26 -56 25 -1 25
-2 -4 -8 -23 -5 -31 -13 -35 -36 -3 -17 -9 34 -13 113 -4 79 -4 149 0 155 4 7
8 26 9 42 0 17 4 49 8 72 8 41 8 42 -25 52 -32 8 -32 9 -7 10 32 1 37 14 27
61 -5 19 -9 61 -9 93 0 32 -6 73 -14 92 -13 31 -13 36 2 45 10 5 12 10 5 10
-7 0 -13 9 -13 20 0 11 -7 20 -15 20 -10 0 -15 -10 -15 -29 0 -17 -4 -33 -10
-36 -6 -3 -10 4 -10 17 0 13 -5 29 -11 35 -13 13 0 23 45 34 31 7 31 7 4 8
-23 1 -28 6 -28 26 0 14 -4 25 -10 25 -5 0 -10 -5 -10 -11 0 -6 -14 -29 -31
-50 -30 -38 -30 -39 -13 -69 12 -19 26 -30 41 -30 19 0 23 -5 23 -33 0 -43
-25 -77 -56 -77 -13 0 -24 -4 -24 -9 0 -13 26 -32 33 -24 4 3 7 -1 7 -10 0 -9
9 -21 20 -27 15 -8 20 -21 20 -52 0 -35 -2 -39 -15 -28 -23 19 -43 -3 -23 -24
9 -8 18 -13 21 -10 3 3 3 -4 0 -17 -4 -15 -3 -20 5 -15 8 5 12 0 12 -13 0 -16
-6 -21 -27 -21 l-26 0 22 -24 c23 -24 23 -27 12 -113 -13 -99 -30 -173 -40
-171 -23 2 -32 -7 -41 -43 -6 -23 -9 -48 -5 -56 6 -17 -15 -83 -26 -83 -4 0
-10 20 -13 45 -8 50 -16 56 -31 23 -6 -13 -20 -24 -32 -26 -28 -4 -29 -13 -3
-35 25 -21 30 -21 30 -2 0 8 5 15 10 15 6 0 10 -14 10 -31 0 -24 -3 -30 -16
-25 -9 3 -33 6 -55 6 l-39 0 0 50 c0 28 3 50 8 50 4 0 8 27 9 61 1 45 -3 62
-14 66 -12 5 -12 7 -2 14 21 13 12 101 -13 120 l-21 16 23 23 23 23 -28 23
c-29 23 -27 44 6 44 22 0 24 8 5 24 -7 6 -16 23 -20 39 -5 23 -3 27 14 27 16
0 20 7 20 30 l0 30 -85 -3 -85 -2 0 -48 c0 -45 2 -49 33 -62 l32 -14 -30 -1
c-22 0 -33 -7 -41 -24 -7 -15 -8 -28 -2 -34 12 -12 -6 -193 -38 -397 -14 -88
-32 -200 -39 -250 -8 -49 -21 -116 -30 -148 -8 -32 -15 -67 -15 -77 0 -11 -4
-20 -8 -20 -4 0 -8 -8 -9 -18 -1 -10 -8 -34 -16 -53 l-15 -34 -1 47 c-1 26 -5
50 -11 53 -5 3 -10 -1 -10 -9 0 -9 -4 -16 -10 -16 -5 0 -10 9 -10 20 0 29 -21
70 -37 70 -9 0 -11 5 -6 12 4 7 6 23 5 35 -2 12 4 46 12 75 8 29 22 89 31 133
9 44 21 100 26 125 11 54 46 281 59 383 5 39 12 89 16 109 l6 37 -48 -1 c-27
-1 -66 2 -86 7 l-38 8 0 -69 c-1 -69 -3 -94 -36 -319 -23 -161 -23 -170 -1
-169 26 2 20 -13 -8 -20 -14 -4 -25 -14 -25 -24 -1 -15 -2 -15 -15 2 -22 30
-43 6 -27 -29 16 -35 18 -31 -30 -61 -24 -15 -65 -46 -93 -71 -27 -24 -59 -51
-70 -61 -23 -20 -118 -52 -155 -52 -15 0 -30 -4 -35 -8 -9 -8 -94 -24 -195
-37 -82 -11 -329 -12 -333 -1 -2 5 -75 13 -163 17 -87 4 -190 10 -229 13 -61
4 -64 4 -22 -4 48 -8 65 -16 56 -24 -12 -12 -309 40 -309 55 0 3 33 0 73 -7
39 -7 83 -13 97 -12 14 0 -8 6 -48 14 -41 7 -95 20 -120 28 -26 8 -66 18 -89
21 -50 8 -141 -4 -122 -16 9 -5 4 -10 -17 -15 -16 -4 -37 -14 -47 -22 -25 -22
-32 -7 -8 17 28 28 27 31 -17 31 -27 0 -50 9 -80 31 -43 32 -43 31 -27 112 4
20 -4 21 -28 2 -14 -10 -17 -20 -12 -37 7 -22 7 -22 -11 -7 -13 11 -25 14 -39
9 -28 -12 -37 -12 -30 0 9 14 -41 13 -65 -2 -10 -7 -23 -9 -27 -4 -10 10 23
35 57 43 14 3 48 17 77 30 28 12 58 23 66 23 10 0 23 24 36 62 27 80 27 83
-10 58 -16 -12 -28 -24 -25 -27 8 -8 -33 -43 -51 -43 -9 0 -32 -5 -50 -12 -21
-8 -36 -9 -43 -2 -6 6 33 34 106 78 119 70 153 105 254 255 15 22 31 36 39 33
10 -3 11 0 5 9 -9 15 -13 269 -4 269 3 0 27 -31 53 -70 26 -38 65 -84 86 -101
44 -37 321 -182 321 -168 0 5 -12 15 -27 22 -86 38 -279 193 -362 291 -62 73
-80 93 -108 125 -28 32 -208 269 -227 300 -4 6 -3 11 2 11 12 0 105 -96 221
-231 99 -114 136 -146 163 -137 8 3 -20 38 -77 94 -49 49 -111 118 -137 154
-98 135 -83 126 -246 140 -78 7 -145 10 -148 7 -3 -3 19 -21 50 -41 49 -31 56
-40 56 -68 0 -18 -4 -48 -9 -66 -9 -29 -8 -32 12 -33 22 -1 21 -1 -1 -7 -13
-4 -24 -11 -24 -17 0 -5 -5 -20 -11 -33 -8 -18 -8 -26 4 -33 12 -9 12 -10 -1
-7 -17 5 -70 -39 -70 -59 0 -7 -5 -13 -11 -13 -6 0 -29 -16 -50 -35 -42 -37
-59 -44 -59 -21 0 7 -7 19 -15 26 -8 7 -15 22 -15 34 0 51 -57 141 -138 218
-73 70 -79 79 -62 88 10 5 39 10 63 10 29 0 49 6 58 17 8 9 29 22 48 30 18 8
31 16 29 18 -2 2 -78 6 -170 9 -160 4 -166 4 -161 -15 4 -16 0 -19 -24 -19
-17 0 -46 -13 -69 -30 -23 -16 -102 -61 -177 -100 -109 -57 -155 -75 -234 -91
-54 -12 -101 -26 -105 -32 -5 -8 -21 -7 -58 1 -28 7 -71 12 -94 12 -39 0 -48
6 -117 73 -45 44 -75 81 -76 95 -1 13 -9 35 -18 48 -9 14 -13 28 -11 33 3 5
-1 23 -10 40 -19 39 -12 61 18 60 17 -1 18 -2 6 -6 -10 -2 -18 -8 -18 -11 0
-12 59 -110 70 -117 16 -10 12 -25 -5 -19 -8 4 -15 1 -15 -5 0 -6 8 -11 19
-11 10 0 25 -7 32 -16 20 -24 111 -74 137 -74 48 0 21 43 -52 85 -37 21 -48
24 -43 11 7 -19 -2 -20 -23 -3 -8 7 -16 27 -16 44 -2 32 -1 33 35 29 20 -1 50
-11 65 -22 64 -42 245 -21 366 42 52 27 45 30 -24 9 -84 -26 -420 -16 -409 11
3 8 -1 14 -11 14 -8 0 -29 8 -46 18 l-30 19 88 21 c48 12 96 22 106 22 10 0
14 4 10 12 -4 6 -3 8 2 5 5 -3 48 1 94 9 102 18 120 23 120 34 0 5 -6 8 -12 5
-7 -2 -38 -6 -68 -9 l-55 -6 55 20 c30 11 80 25 110 30 96 16 134 26 179 49
50 26 158 98 166 111 3 5 18 11 35 15 16 3 41 16 56 28 18 13 50 24 88 29 34
4 91 12 128 17 94 15 122 1 169 -87 30 -57 34 -72 27 -102 -4 -19 -10 -51 -13
-70 -3 -20 -18 -49 -35 -67 -17 -18 -30 -37 -30 -42 0 -6 -6 -11 -13 -11 -7 0
-37 -12 -65 -26 -74 -37 -97 -29 -106 35 -11 82 -25 113 -49 105 -17 -5 -19
-3 -14 16 4 16 -3 29 -29 52 -25 22 -32 33 -23 39 9 5 4 11 -15 20 -26 12 -34
10 -96 -24 -37 -20 -75 -37 -84 -37 -9 0 -16 -2 -16 -5 0 -13 33 -55 43 -55 5
0 2 10 -9 21 l-19 22 30 -7 c16 -4 36 -13 43 -19 12 -9 11 -12 -5 -18 -17 -7
-16 -8 4 -14 12 -4 19 -13 17 -20 -3 -8 4 -16 18 -20 13 -4 31 -14 40 -22 10
-9 24 -13 31 -10 10 4 15 -2 15 -18 0 -16 -5 -22 -14 -18 -17 6 -17 2 -1 -30
l14 -26 196 -6 c163 -5 202 -3 232 10 21 8 47 14 59 14 17 -1 17 -2 4 -6 -10
-2 -18 -11 -18 -18 0 -9 20 -15 63 -19 103 -10 247 -12 247 -3 0 4 -3 7 -7 8
-5 0 -30 29 -58 63 -27 35 -62 72 -77 82 -15 10 -24 22 -21 27 2 4 24 -10 47
-31 23 -21 49 -43 57 -48 8 -5 24 -27 36 -49 16 -30 31 -43 63 -54 22 -7 44
-11 47 -7 7 6 -56 91 -111 150 -26 27 -40 36 -48 29 -9 -6 -22 -5 -38 3 -24
13 -22 14 26 14 39 0 55 -5 69 -20 10 -12 34 -30 52 -41 18 -12 41 -35 49 -52
9 -18 40 -57 69 -87 30 -30 114 -117 186 -192 73 -76 138 -138 145 -138 6 0
14 -9 17 -20 3 -11 20 -28 38 -37 17 -10 41 -28 52 -41 17 -18 27 -21 56 -16
33 7 35 6 22 -10 -13 -15 -12 -19 5 -36 37 -37 187 -120 206 -114 10 3 18 1
18 -5 0 -10 93 -48 141 -58 16 -3 37 2 54 13 l27 17 -49 19 c-26 10 -58 18
-69 18 -12 0 -55 19 -95 42 -180 101 -249 144 -249 153 -1 9 -54 52 -209 169
-62 47 -240 219 -230 223 2 1 -18 32 -46 70 -68 93 -195 218 -284 281 -41 29
-71 52 -67 52 26 0 176 -92 216 -132 37 -37 56 -48 82 -49 22 -1 26 -3 11 -6
-20 -4 -15 -13 54 -104 42 -55 85 -104 97 -109 11 -5 17 -9 12 -9 -16 -1 78
-91 95 -91 8 0 23 6 34 13 17 13 17 14 -1 28 -10 8 -53 54 -94 104 -118 142
-209 228 -295 284 -94 59 -92 67 3 14 90 -49 154 -97 217 -162 35 -35 57 -51
66 -46 9 6 11 3 5 -10 -9 -26 40 -77 68 -70 12 3 15 2 8 -1 -20 -9 -14 -23 30
-65 32 -30 48 -39 65 -34 24 6 32 -9 11 -18 -13 -5 8 -28 58 -63 20 -13 55
-10 53 5 0 3 -22 24 -47 46 -68 59 -212 212 -212 225 0 7 6 10 14 7 25 -10
107 -71 164 -123 73 -66 182 -144 200 -144 8 0 29 -12 47 -27 18 -16 55 -41
81 -56 27 -16 78 -46 114 -67 203 -120 433 -206 455 -171 3 5 -16 17 -42 27
-87 31 -218 86 -228 94 -6 5 -44 22 -85 38 -41 16 -98 44 -127 63 -29 19 -77
50 -108 69 -60 37 -133 98 -284 238 -51 48 -99 91 -107 95 -8 4 -14 12 -14 17
0 13 37 13 45 0 8 -12 25 -13 25 -1 0 12 -156 52 -203 52 -10 0 -21 7 -24 15
-3 8 -13 12 -22 10 -9 -3 -36 6 -61 20 -25 13 -34 21 -20 18 42 -12 164 -10
190 3 14 7 36 13 50 14 l25 1 -26 11 c-14 7 -24 17 -22 23 6 19 -25 37 -52 30
-14 -4 -23 -11 -20 -16 7 -11 -8 -14 -19 -3 -3 4 -14 7 -24 8 -47 4 -174 38
-186 50 -7 8 -23 11 -35 8 -22 -6 -30 12 -8 20 6 2 -4 4 -23 4 -20 0 -73 16
-126 40 -128 59 -211 81 -354 98 l-125 14 115 -4 c144 -5 224 -23 364 -79 213
-85 446 -145 446 -115 0 7 17 8 45 5 35 -5 45 -3 45 8 0 15 -57 46 -85 46 -25
0 -251 58 -305 79 -27 10 -72 33 -100 50 -59 36 -103 47 -255 62 -60 6 -123
13 -140 15 -16 3 -49 5 -72 5 -24 1 -43 5 -43 10 0 5 -9 9 -19 9 -11 0 -33 11
-49 25 -17 14 -33 25 -37 25 -4 0 -14 8 -21 18 -7 9 -16 18 -21 18 -26 4 -73
30 -73 42 0 8 -6 12 -12 9 -8 -2 -12 -17 -10 -36 5 -44 -14 -32 -22 14 -4 19
-11 35 -15 35 -5 0 -11 9 -14 20 -3 11 -12 20 -21 20 -9 0 -16 7 -16 15 0 23
-18 18 -36 -10 -12 -19 -15 -45 -13 -116 2 -66 0 -94 -9 -97 -14 -4 -16 -41
-3 -61 8 -12 16 -13 48 -3 113 34 143 38 143 18 0 -8 -15 -17 -37 -21 -21 -4
-49 -13 -64 -21 -15 -7 -45 -16 -66 -20 -23 -3 -44 -14 -51 -25 -11 -17 -9
-21 14 -29 21 -8 36 -6 78 14 28 14 71 30 96 35 25 5 65 14 90 20 26 5 49 6
54 1 5 -5 -3 -12 -20 -15 -69 -16 -167 -47 -233 -75 -68 -28 -72 -28 -66 -9 6
17 3 20 -17 17 -24 -3 -41 -48 -17 -48 6 0 0 -9 -14 -20 -14 -11 -30 -20 -36
-20 -7 0 -38 -13 -70 -29 -54 -28 -102 -45 -241 -88 -30 -10 -61 -22 -68 -27
-33 -24 -343 -28 -437 -7 -52 12 -56 15 -35 22 18 5 8 7 -35 8 -67 1 -105 9
-105 22 0 5 7 6 15 3 31 -12 13 16 -22 36 l-38 21 85 -5 c120 -8 340 28 340
56 0 5 23 35 50 66 54 61 66 98 28 89 -106 -26 -128 -37 -128 -63 0 -8 -5 -14
-10 -14 -6 0 -29 -9 -53 -19 -73 -33 -108 -41 -171 -40 -46 0 -56 3 -41 10 15
7 9 8 -22 4 -23 -3 -44 -1 -48 4 -3 6 -26 13 -51 17 l-45 6 50 24 c36 16 49
27 45 38 -7 17 8 26 112 64 168 63 367 162 451 225 86 65 348 203 405 213 18
4 43 13 55 20 31 20 166 61 238 73 33 5 132 15 220 21 88 6 218 15 290 21 71
6 144 11 162 11 18 0 33 4 33 9 0 8 66 5 175 -7 28 -3 95 -7 150 -10 153 -6
363 -46 372 -70 3 -8 9 -11 15 -8 8 5 165 -65 243 -108 94 -52 273 -149 330
-178 45 -23 69 -41 67 -50 -4 -19 25 -40 56 -40 14 0 41 -15 62 -32 20 -18 67
-58 104 -88 38 -30 77 -65 89 -77 11 -13 29 -23 39 -23 10 0 18 -4 18 -10 0
-12 90 -74 97 -66 4 3 1 17 -5 31 -7 14 -12 33 -12 42 0 8 -14 44 -30 78 -78
163 -472 424 -820 543 -69 23 -131 46 -139 51 -26 17 7 20 100 11 52 -6 162
-17 244 -24 83 -8 173 -22 200 -30 28 -8 77 -21 110 -30 33 -8 87 -22 120 -31
111 -32 255 -127 255 -170 0 -12 7 -28 16 -36 8 -7 22 -25 29 -40 9 -17 35
-37 68 -52 52 -24 54 -26 80 -99 32 -91 65 -229 77 -326 5 -40 12 -77 15 -82
3 -5 8 -73 10 -152 3 -79 8 -210 11 -293 4 -82 7 -190 8 -240 l1 -90 78 -3 77
-3 0 45 c0 32 -5 48 -17 55 -10 6 -13 11 -8 11 9 0 9 52 2 385 l-2 80 -42 6
c-42 5 -77 23 -38 19 22 -3 85 10 85 17 0 2 -16 70 -36 151 -41 169 -122 419
-165 510 -29 60 -31 82 -6 82 14 0 28 -20 70 -100 44 -85 71 -133 94 -171 39
-63 138 -383 147 -472 1 -4 7 -12 15 -16 8 -6 11 -16 7 -27 -4 -9 -2 -41 4
-70 11 -50 13 -54 46 -60 l35 -6 -27 -14 c-14 -8 -33 -14 -40 -14 -12 0 -14
-21 -10 -117 l4 -118 63 4 c35 2 67 5 71 7 4 3 -2 20 -13 39 -19 31 -19 36 -5
41 9 3 16 16 16 29 0 12 5 36 11 54 8 24 8 35 -1 46 -7 8 -10 26 -6 39 4 15 0
28 -9 36 -7 6 -11 18 -8 26 3 8 0 14 -6 14 -17 0 -13 21 7 37 12 10 14 16 5
19 -7 3 -13 18 -13 33 0 15 -6 36 -14 47 -9 12 -11 23 -5 30 6 7 4 16 -6 24
-8 7 -15 22 -15 34 0 11 -7 34 -16 51 -8 16 -13 39 -10 51 4 14 -1 28 -14 39
-24 22 -25 29 -4 50 15 14 14 23 -15 110 -16 52 -48 130 -71 172 -22 42 -40
81 -40 87 0 5 18 -7 39 -28 37 -36 98 -146 116 -206 4 -14 15 -43 25 -65 41
-90 50 -114 50 -127 0 -19 23 -68 33 -68 4 0 7 -6 7 -14 0 -8 9 -31 21 -51 27
-45 38 -95 28 -123 -6 -16 -5 -22 5 -22 19 0 18 42 -5 135 -53 222 -126 420
-192 528 -16 26 -27 51 -23 54 3 4 7 4 9 2 24 -34 97 -118 114 -132 26 -21
107 -183 123 -247 7 -25 15 -67 19 -95 8 -59 16 -75 39 -75 27 0 50 18 35 28
-7 4 -16 30 -19 58 -4 27 -12 60 -19 74 -7 14 -21 54 -31 90 -18 68 -64 170
-114 255 -33 58 -40 93 -11 58 11 -13 24 -23 31 -23 18 0 57 -51 91 -120 17
-36 36 -72 40 -80 27 -47 79 -163 85 -187 3 -15 14 -46 24 -68 10 -23 21 -62
25 -88 7 -46 8 -47 26 -31 23 21 24 40 4 48 -10 4 -15 20 -15 51 0 25 -4 53
-9 63 -14 28 -34 76 -36 87 -3 23 -73 156 -122 232 -60 92 -66 114 -24 84 26
-19 30 -19 33 -5 4 23 73 -77 128 -186 24 -47 59 -132 79 -190 24 -71 41 -105
51 -105 18 0 26 53 11 68 -6 6 -11 20 -11 32 0 38 -30 139 -60 200 -16 33 -31
74 -34 90 -3 17 -8 44 -12 60 -7 29 -6 30 13 13 11 -10 24 -18 30 -18 5 0 18
-19 28 -42 26 -63 50 -118 68 -158 8 -19 20 -55 27 -80 20 -80 21 -81 42 -78
28 4 31 36 7 66 -10 14 -19 32 -19 41 0 9 -7 41 -15 71 -8 30 -19 79 -25 108
-5 30 -12 62 -15 71 -3 9 1 26 9 37 14 18 16 16 36 -31 12 -27 35 -86 49 -130
22 -62 32 -81 48 -83 l21 -3 -19 83 c-30 128 -32 145 -20 152 7 5 11 -2 11
-19 0 -17 5 -25 13 -22 6 2 11 18 11 36 -1 17 2 31 7 31 5 0 7 59 4 138 -5
169 -3 167 -138 175 -53 3 -110 2 -129 -2 -18 -4 -44 -5 -58 -1 -14 4 -72 3
-130 -1 -58 -4 -184 -9 -280 -9 -96 -1 -218 -5 -270 -9 -52 -4 -111 -4 -131 1
-20 4 -67 9 -105 11 -38 2 -79 9 -91 15 -12 7 -35 12 -52 12 -17 0 -48 7 -68
15 -55 21 -415 111 -505 125 -44 7 -103 10 -140 6 -110 -11 -161 -12 -233 -3
-38 5 -115 8 -170 8 -97 -1 -147 8 -250 46 -26 10 -111 18 -260 24 -230 10
-388 6 -565 -12 -92 -10 -360 -6 -550 8 -60 4 -887 12 -892 8z m-259 -71 c2
-2 -55 -4 -127 -4 -80 0 -132 4 -132 10 0 9 248 3 259 -6z m1066 6 c3 -5 -1
-10 -9 -10 -9 0 -16 5 -16 10 0 6 4 10 9 10 6 0 13 -4 16 -10z m1030 0 c3 -5
1 -10 -4 -10 -6 0 -10 -10 -8 -22 3 -31 -29 -36 -36 -7 -10 36 30 68 48 39z
m-2035 -9 c0 -5 -9 -7 -20 -4 -11 3 -20 7 -20 9 0 2 9 4 20 4 11 0 20 -4 20
-9z m845 -10 c-14 -6 -2 -10 45 -17 l65 -9 -60 -3 c-33 -1 -87 2 -120 7 -59 8
-59 9 -15 10 25 1 52 6 60 11 8 5 22 9 30 9 10 0 8 -3 -5 -8z m-2125 -25 c0
-2 -7 -7 -16 -10 -8 -3 -12 -2 -9 4 6 10 25 14 25 6z m1757 -17 c8 -8 87 -11
262 -10 250 2 293 -4 214 -29 -21 -7 -53 -21 -71 -31 -17 -10 -38 -16 -46 -13
-8 3 -19 -3 -26 -15 -6 -12 -16 -21 -23 -21 -8 0 -47 -31 -88 -69 -86 -79
-260 -201 -287 -201 -19 0 -92 -19 -179 -47 l-53 -17 -29 28 c-24 23 -35 27
-60 21 -30 -6 -31 -6 -31 29 0 40 -11 50 -46 42 -20 -5 -24 -11 -19 -27 4 -13
-2 -29 -19 -50 l-26 -31 0 27 c0 26 -2 27 -32 21 -24 -4 -29 -3 -18 4 8 5 22
10 31 10 18 0 30 28 33 72 1 29 -24 45 -69 46 -23 0 -58 -53 -70 -107 -8 -37
-37 -71 -61 -71 -10 0 -14 -6 -11 -15 9 -22 -11 -29 -93 -36 -41 -4 -85 -10
-96 -14 -15 -5 -29 0 -48 18 -20 19 -42 26 -94 32 -94 10 -172 44 -219 95 -21
23 -40 48 -42 54 -2 6 -9 18 -16 26 -7 8 -25 44 -39 78 -19 48 -22 62 -11 58
8 -3 22 -3 31 1 10 4 -3 12 -38 24 -64 22 -98 24 -98 5 0 -7 -8 -16 -18 -19
-11 -2 -21 -14 -24 -25 -5 -18 -4 -19 14 -9 16 10 22 9 34 -8 18 -24 14 -38
-13 -40 -11 -1 -37 -19 -57 -41 -20 -21 -52 -56 -71 -76 -48 -52 -114 -70
-225 -62 -87 6 -376 50 -391 60 -13 8 -11 31 4 36 6 3 102 2 212 -1 110 -3
202 -4 205 -1 3 3 30 5 61 6 62 1 109 11 109 22 0 12 -53 33 -60 23 -5 -10
-40 -15 -72 -13 -11 1 -15 7 -12 17 5 11 -1 15 -17 15 -17 0 -20 -3 -10 -9 24
-15 -8 -25 -101 -29 -61 -3 -88 -1 -88 7 0 7 -19 11 -48 11 -44 0 -137 23
-154 39 -15 14 131 59 242 75 63 10 149 24 190 32 42 8 91 14 111 14 19 0 40
5 47 12 22 22 853 40 1053 23 70 -6 77 -5 81 13 7 27 51 33 278 42 102 4 187
7 191 8 3 1 10 -3 16 -9z m813 1 c0 -5 -9 -10 -19 -10 -11 0 -23 5 -26 10 -4
6 5 10 19 10 14 0 26 -4 26 -10z m133 -7 c-7 -2 -21 -2 -30 0 -10 3 -4 5 12 5
17 0 24 -2 18 -5z m187 -3 c0 -7 -21 -9 -62 -4 -84 9 -86 14 -5 14 40 0 67 -4
67 -10z m165 0 c-3 -5 -27 -10 -53 -9 -35 0 -42 3 -27 9 28 12 88 12 80 0z
m155 0 c11 -7 -4 -10 -50 -10 -46 0 -61 3 -50 10 8 5 31 10 50 10 19 0 42 -5
50 -10z m-1010 -100 c0 -5 -4 -10 -10 -10 -5 0 -10 5 -10 10 0 6 5 10 10 10 6
0 10 -4 10 -10z m38 -27 c-21 -2 -57 -2 -80 0 -24 2 -7 4 37 4 44 0 63 -2 43
-4z m3452 -73 c-8 -5 -19 -10 -25 -10 -5 0 -3 5 5 10 8 5 20 10 25 10 6 0 3
-5 -5 -10z m-272 -67 c-2 -13 -13 -18 -41 -18 -22 0 -37 5 -37 12 0 6 -3 20
-6 30 -6 16 -5 16 9 -2 10 -12 16 -15 17 -7 0 8 8 10 25 6 20 -5 25 -2 26 12
1 17 2 17 6 2 2 -10 3 -26 1 -35z m609 41 c-3 -3 -12 -4 -19 -1 -8 3 -5 6 6 6
11 1 17 -2 13 -5z m-77 -19 c12 -14 4 -16 -73 -14 -60 1 -90 6 -98 15 -10 12
3 14 74 14 64 0 88 -4 97 -15z m-634 -19 c9 -9 10 -17 4 -21 -14 -8 -30 3 -30
21 0 18 8 18 26 0z m214 -6 c-11 -7 -60 -2 -60 6 0 2 16 3 35 2 20 -1 31 -4
25 -8z m-225 -40 c3 -5 1 -10 -4 -10 -6 0 -11 5 -11 10 0 6 2 10 4 10 3 0 8
-4 11 -10z m205 -11 c0 -6 -4 -7 -10 -4 -5 3 -10 11 -10 16 0 6 5 7 10 4 6 -3
10 -11 10 -16z m820 -9 c0 -10 -38 -1 -45 10 -2 4 7 5 20 2 14 -2 25 -8 25
-12z m-612 -8 c2 -7 -6 -12 -17 -12 -21 0 -27 11 -14 24 9 9 26 2 31 -12z
m132 -12 c0 -13 -11 -13 -30 0 -12 8 -11 10 8 10 12 0 22 -4 22 -10z m-1107
-41 c27 -17 28 -19 7 -13 -14 3 -26 11 -28 15 -2 5 -14 9 -27 9 -13 0 -27 5
-31 11 -10 17 39 3 79 -22z m1207 21 c0 -5 -4 -10 -10 -10 -5 0 -10 5 -10 10
0 6 5 10 10 10 6 0 10 -4 10 -10z m-377 -17 c-7 -2 -19 -2 -25 0 -7 3 -2 5 12
5 14 0 19 -2 13 -5z m-4393 -27 c0 -3 -4 -8 -10 -11 -5 -3 -10 -1 -10 4 0 6 5
11 10 11 6 0 10 -2 10 -4z m-95 -65 c6 -11 -32 -41 -52 -41 -17 0 -17 37 0 43
20 9 45 8 52 -2z m4295 -1 c0 -5 -4 -10 -10 -10 -5 0 -10 5 -10 10 0 6 5 10
10 10 6 0 10 -4 10 -10z m-403 -142 c-3 -8 -6 -5 -6 6 -1 11 2 17 5 13 3 -3 4
-12 1 -19z m-2247 -73 c0 -8 -4 -15 -10 -15 -5 0 -10 7 -10 15 0 8 5 15 10 15
6 0 10 -7 10 -15z m2337 -21 c-3 -3 -12 -4 -19 -1 -8 3 -5 6 6 6 11 1 17 -2
13 -5z m-2649 -101 c-10 -2 -18 -11 -18 -20 0 -16 -22 -13 -27 4 -4 11 18 21
47 21 10 0 9 -2 -2 -5z m-1116 -60 c-6 -2 -10 -9 -6 -14 3 -5 -4 -9 -15 -9
-29 0 -35 18 -9 23 32 6 45 6 30 0z m1735 -29 c-3 -3 -12 -4 -19 -1 -8 3 -5 6
6 6 11 1 17 -2 13 -5z m-989 -51 c-10 -2 -26 -2 -35 0 -10 3 -2 5 17 5 19 0
27 -2 18 -5z m172 -7 c8 -2 -16 -4 -53 -5 -38 0 -66 2 -63 7 4 7 81 5 116 -2z
m803 7 c-7 -2 -19 -2 -25 0 -7 3 -2 5 12 5 14 0 19 -2 13 -5z m-1015 -20 c-10
-2 -26 -2 -35 0 -10 3 -2 5 17 5 19 0 27 -2 18 -5z m3497 -3 c3 -5 1 -10 -4
-10 -6 0 -11 5 -11 10 0 6 2 10 4 10 3 0 8 -4 11 -10z m-2885 -20 c0 -5 -15
-10 -34 -10 -19 0 -38 5 -41 10 -4 6 10 10 34 10 23 0 41 -4 41 -10z m1105
-20 c-19 -7 -18 -9 8 -19 16 -6 39 -11 53 -11 37 0 28 -17 -12 -22 -29 -3 -41
1 -61 23 -17 18 -32 25 -46 21 -14 -3 -18 -1 -13 6 4 7 26 12 49 11 32 0 37
-2 22 -9z m-2050 -90 c17 -7 15 -9 -12 -9 -17 -1 -35 4 -38 9 -7 12 22 12 50
0z m1335 -12 c0 -19 -2 -20 -10 -8 -13 19 -13 30 0 30 6 0 10 -10 10 -22z
m2467 6 c-3 -3 -12 -4 -19 -1 -8 3 -5 6 6 6 11 1 17 -2 13 -5z m-3767 -64 c0
-5 -4 -10 -10 -10 -5 0 -10 5 -10 10 0 6 5 10 10 10 6 0 10 -4 10 -10z m1510
-90 c0 -5 -5 -10 -11 -10 -5 0 -7 5 -4 10 3 6 8 10 11 10 2 0 4 -4 4 -10z
m-593 -16 c-3 -3 -12 -4 -19 -1 -8 3 -5 6 6 6 11 1 17 -2 13 -5z m68 -35 c-54
-12 -145 -16 -145 -7 0 6 66 13 150 15 l35 1 -40 -9z m-167 -16 c-10 -2 -28
-2 -40 0 -13 2 -5 4 17 4 22 1 32 -1 23 -4z m-863 -33 c-3 -5 -14 -10 -23 -10
-15 0 -15 2 -2 10 20 13 33 13 25 0z m978 -56 c42 -13 66 -31 120 -88 37 -39
67 -76 67 -82 0 -27 40 -98 62 -110 l23 -13 -22 -1 c-13 0 -23 -5 -23 -11 0
-7 -10 -9 -25 -5 -14 4 -25 3 -25 -2 0 -4 -16 -14 -35 -21 -19 -7 -35 -17 -35
-22 0 -5 -6 -9 -14 -9 -12 0 -137 -57 -176 -80 -8 -5 -77 -37 -153 -71 -137
-61 -139 -62 -209 -56 -85 7 -163 42 -198 89 -67 88 -106 150 -113 178 l-6 25
20 -27 c23 -31 53 -35 83 -13 19 15 19 15 -1 15 -30 0 -34 22 -9 50 43 48 528
268 594 270 13 0 47 -7 75 -16z m3509 -96 c-9 -9 -12 -7 -12 12 0 19 3 21 12
12 9 -9 9 -15 0 -24z m-2729 -12 c4 -10 0 -12 -14 -9 -10 3 -16 9 -13 14 8 13
21 11 27 -5z m457 4 c0 -5 -2 -10 -4 -10 -3 0 -8 5 -11 10 -3 6 -1 10 4 10 6
0 11 -4 11 -10z m-545 -36 c11 -8 20 -20 20 -27 2 -18 47 -112 56 -115 5 -2 6
-8 3 -13 -3 -6 0 -16 6 -25 9 -9 11 -37 8 -83 -5 -72 -36 -141 -101 -224 -27
-34 -81 -67 -112 -67 -6 0 -39 46 -72 103 -43 72 -77 116 -117 150 -31 27 -56
52 -56 58 0 5 25 9 55 9 l56 0 84 87 c47 48 85 92 85 98 0 6 -5 16 -12 23 -16
16 -1 29 37 35 17 2 32 5 35 5 3 1 14 -5 25 -14z m2175 -34 c12 -8 11 -10 -7
-10 -13 0 -23 5 -23 10 0 13 11 13 30 0z m63 3 c-13 -2 -23 -9 -23 -14 0 -5
-4 -9 -10 -9 -5 0 -10 7 -10 15 0 11 10 15 33 14 23 -1 26 -3 10 -6z m-2055
-30 c-10 -2 -26 -2 -35 0 -10 3 -2 5 17 5 19 0 27 -2 18 -5z m-1631 -49 c-3
-3 -12 -4 -19 -1 -8 3 -5 6 6 6 11 1 17 -2 13 -5z m1630 -30 c-3 -3 -12 -4
-19 -1 -8 3 -5 6 6 6 11 1 17 -2 13 -5z m-522 -33 c10 -17 -12 -21 -25 -6 -10
12 -10 15 3 15 9 0 18 -4 22 -9z m-68 -7 c-3 -3 -12 -4 -19 -1 -8 3 -5 6 6 6
11 1 17 -2 13 -5z m616 -31 c-7 -2 -21 -2 -30 0 -10 3 -4 5 12 5 17 0 24 -2
18 -5z m-653 -24 c78 -17 54 -20 -31 -5 -40 8 -62 14 -47 15 15 1 50 -4 78
-10z m590 -65 c0 -2 -9 -4 -20 -4 -11 0 -20 4 -20 9 0 5 9 7 20 4 11 -3 20 -7
20 -9z m55 -4 c8 -13 -15 -13 -35 0 -12 8 -11 10 7 10 12 0 25 -4 28 -10z
m-615 -68 c46 -44 100 -125 100 -150 0 -9 9 -32 20 -50 22 -35 26 -62 10 -62
-19 0 -10 -18 13 -24 l22 -6 -23 -16 c-47 -33 -440 -224 -461 -224 -11 0 -21
-4 -21 -9 0 -5 -14 -14 -32 -22 -27 -11 -29 -14 -12 -20 23 -9 -33 -14 -109
-10 -86 5 -125 46 -60 63 36 9 50 25 36 39 -6 6 -27 5 -56 -3 -41 -11 -46 -15
-41 -35 4 -13 4 -23 1 -23 -10 0 -44 55 -50 80 -5 21 -3 26 13 26 13 0 20 -7
20 -18 0 -17 2 -17 30 -3 34 18 40 45 9 45 -42 0 -111 -23 -122 -41 -15 -25
-24 -24 -33 4 -4 12 -17 32 -30 44 -13 12 -24 32 -24 44 0 21 2 21 23 -8 27
-37 42 -40 42 -10 1 16 6 21 22 20 12 -1 23 3 26 10 6 16 -65 19 -75 3 -5 -6
-8 -2 -8 11 0 12 5 25 10 28 19 12 -1 25 -36 25 -19 0 -34 5 -34 10 0 6 12 10
26 10 14 0 32 6 40 14 12 13 12 15 -4 20 -9 3 -1 4 19 2 19 -2 58 2 86 9 80
21 293 108 343 140 71 46 141 76 193 82 37 5 47 10 47 24 0 31 37 22 80 -19z
m-305 17 c11 -17 -1 -21 -15 -4 -8 9 -8 15 -2 15 6 0 14 -5 17 -11z m889 -8
c3 -4 -6 -6 -19 -3 -14 2 -25 6 -25 8 0 8 39 4 44 -5z m2663 -117 c-3 -3 -12
-4 -19 -1 -8 3 -5 6 6 6 11 1 17 -2 13 -5z m-3073 -150 c3 -8 2 -12 -4 -9 -6
3 -10 10 -10 16 0 14 7 11 14 -7z m3013 -56 c-3 -8 -6 -5 -6 6 -1 11 2 17 5
13 3 -3 4 -12 1 -19z m-3977 -18 c0 -5 -4 -10 -10 -10 -5 0 -10 5 -10 10 0 6
5 10 10 10 6 0 10 -4 10 -10z m3377 -16 c-3 -3 -12 -4 -19 -1 -8 3 -5 6 6 6
11 1 17 -2 13 -5z m491 -32 c2 -12 8 -20 13 -17 15 10 10 -17 -8 -37 -18 -21
-78 -26 -69 -5 2 6 10 29 17 50 14 42 42 48 47 9z m392 -2 c0 -5 -7 -10 -15
-10 -8 0 -15 5 -15 10 0 6 7 10 15 10 8 0 15 -4 15 -10z m-3365 -20 c3 -5 2
-10 -4 -10 -5 0 -13 5 -16 10 -3 6 -2 10 4 10 5 0 13 -4 16 -10z m195 -5 c6
-8 9 -19 5 -25 -7 -11 -34 15 -35 33 0 12 17 8 30 -8z m-55 -5 c4 -6 -7 -10
-27 -10 -25 0 -29 3 -18 10 19 13 37 13 45 0z m3275 0 c0 -5 -7 -7 -15 -4 -8
4 -15 8 -15 10 0 2 7 4 15 4 8 0 15 -4 15 -10z m-3335 -30 c3 -6 -1 -13 -9
-16 -9 -3 -16 -12 -16 -20 0 -10 -12 -14 -38 -14 -21 0 -42 -4 -47 -8 -6 -5
-29 -15 -53 -22 -53 -17 -60 -27 -34 -52 l20 -21 56 32 c40 23 70 33 112 35
39 2 51 0 40 -6 -13 -7 -14 -13 -6 -23 7 -8 9 -24 5 -36 -6 -19 -4 -21 14 -16
15 3 24 -1 31 -14 7 -11 7 -19 1 -19 -5 0 -11 4 -13 10 -2 7 -148 -33 -167
-47 -2 -1 2 -10 10 -20 13 -17 13 -17 -13 0 -18 11 -37 15 -53 11 -15 -4 -25
-2 -25 5 0 6 7 11 15 11 8 0 15 4 15 8 0 12 -72 86 -95 99 -16 9 -11 14 41 38
32 15 77 35 99 45 28 13 44 15 52 8 10 -8 13 -6 13 4 0 15 19 38 31 38 4 0 11
-5 14 -10z m2955 -80 c0 -5 -4 -10 -10 -10 -5 0 -10 5 -10 10 0 6 -7 10 -15
10 -17 0 -18 2 -9 25 6 14 9 14 25 -4 11 -11 19 -25 19 -31z m-2850 0 c0 -5
-5 -10 -11 -10 -5 0 -7 5 -4 10 3 6 8 10 11 10 2 0 4 -4 4 -10z m-1090 -15 c0
-8 -4 -15 -8 -15 -5 0 -9 7 -9 15 0 8 4 15 9 15 4 0 8 -7 8 -15z m657 9 c-3
-3 -12 -4 -19 -1 -8 3 -5 6 6 6 11 1 17 -2 13 -5z m533 -29 c0 -8 -6 -12 -14
-9 -7 3 -32 -5 -55 -17 -50 -26 -64 -19 -30 15 28 28 99 36 99 11z m-1135 -5
c-4 -6 6 -10 22 -11 15 0 22 -3 15 -6 -19 -7 -64 6 -57 17 3 6 11 10 16 10 6
0 7 -4 4 -10z m588 3 c-7 -2 -21 -2 -30 0 -10 3 -4 5 12 5 17 0 24 -2 18 -5z
m-625 -20 c-2 -10 6 -25 17 -35 28 -23 12 -33 -19 -13 -29 19 -32 29 -13 50
16 19 19 18 15 -2z m192 -14 c0 -5 -17 -9 -37 -9 -38 0 -36 14 2 22 23 5 35 1
35 -13z m-130 -3 c0 -3 -4 -8 -10 -11 -5 -3 -10 -1 -10 4 0 6 5 11 10 11 6 0
10 -2 10 -4z m550 -16 c7 -12 20 -20 33 -19 12 1 33 1 47 0 l25 -3 -25 -8
c-17 -5 -19 -8 -7 -9 9 -1 17 -6 17 -11 0 -7 -6 -7 -19 0 -25 13 -83 14 -61 1
8 -6 18 -7 22 -5 5 3 11 -2 15 -11 5 -14 15 -16 57 -11 34 4 46 3 35 -3 -23
-14 -128 -25 -109 -12 27 20 -9 32 -82 29 -77 -4 -91 6 -23 16 52 8 64 20 35
36 -27 15 -25 30 5 30 14 0 29 -8 35 -20z m690 -19 c-8 -5 -67 -18 -130 -30
-63 -12 -135 -26 -159 -32 -41 -9 -71 -5 -40 5 51 18 179 46 213 47 23 0 50 4
61 9 27 12 76 13 55 1z m265 -11 c-7 -12 -42 -12 -70 0 -15 6 -8 9 28 9 30 1
46 -3 42 -9z m2395 0 c0 -5 -2 -10 -4 -10 -3 0 -8 5 -11 10 -3 6 -1 10 4 10 6
0 11 -4 11 -10z m-3500 -35 c19 -19 29 -35 23 -35 -6 0 -23 16 -37 35 -15 19
-25 35 -23 35 1 0 18 -16 37 -35z m-267 18 c-7 -2 -19 -2 -25 0 -7 3 -2 5 12
5 14 0 19 -2 13 -5z m2917 -22 c0 -5 -10 -11 -22 -14 -22 -6 -22 -6 -4 8 23
17 26 18 26 6z m620 -58 c0 -27 28 -43 40 -23 4 7 13 9 20 5 9 -6 9 -9 -1 -16
-7 -4 -14 -25 -14 -46 0 -32 -4 -39 -22 -41 -21 -3 -23 -9 -23 -58 0 -30 2
-54 4 -54 2 0 19 6 37 14 24 10 39 11 52 4 11 -5 30 -8 43 -5 13 2 24 0 24 -4
0 -5 -6 -9 -14 -9 -17 0 -41 -28 -32 -37 4 -4 15 -2 24 3 14 9 21 6 36 -13
l18 -24 -39 6 c-21 3 -59 11 -85 16 -26 6 -52 8 -57 5 -6 -4 -27 3 -48 14 -21
11 -55 23 -76 27 -49 8 -54 17 -25 56 14 18 28 41 32 52 15 38 36 126 36 149
0 33 9 38 41 19 19 -11 29 -26 29 -40z m-1730 27 c0 -5 -4 -10 -10 -10 -5 0
-10 5 -10 10 0 6 5 10 10 10 6 0 10 -4 10 -10z m70 0 c0 -5 -11 -10 -25 -10
-14 0 -25 5 -25 10 0 6 11 10 25 10 14 0 25 -4 25 -10z m117 4 c-3 -3 -12 -4
-19 -1 -8 3 -5 6 6 6 11 1 17 -2 13 -5z m953 -20 c0 -8 -5 -12 -10 -9 -6 4 -8
11 -5 16 9 14 15 11 15 -7z m107 -60 c-3 -3 -12 -4 -19 -1 -8 3 -5 6 6 6 11 1
17 -2 13 -5z m1040 -130 c-3 -3 -12 -4 -19 -1 -8 3 -5 6 6 6 11 1 17 -2 13 -5z
m-169 -106 c-18 -11 -96 -10 -103 2 -4 6 17 9 55 8 35 -1 55 -5 48 -10z m-203
-44 c50 -4 160 -24 200 -35 31 -9 1 -7 -119 8 -35 4 -51 2 -58 -8 -8 -11 -9
-11 -5 2 5 14 -7 17 -75 23 -45 4 -88 11 -97 17 -11 7 3 8 49 4 36 -4 83 -9
105 -11z"/>
<path d="M896 3015 c4 -8 8 -15 10 -15 2 0 4 7 4 15 0 8 -4 15 -10 15 -5 0 -7
-7 -4 -15z"/>
<path d="M830 2916 c0 -19 -16 -22 -22 -4 -3 9 -6 9 -12 0 -4 -7 -2 -12 5 -12
8 0 8 -4 -1 -15 -8 -9 -8 -15 -2 -15 6 0 17 7 26 15 8 8 20 15 26 15 15 0 8
22 -8 28 -7 2 -12 -3 -12 -12z"/>
<path d="M685 2910 c-3 -5 -1 -10 4 -10 6 0 11 5 11 10 0 6 -2 10 -4 10 -3 0
-8 -4 -11 -10z"/>
<path d="M2626 1326 c7 -17 86 -84 134 -113 38 -23 135 -39 175 -29 25 6 25 7
8 31 -14 20 -26 25 -53 23 -74 -4 -121 14 -203 80 -32 25 -69 30 -61 8z m189
-106 c3 -6 -4 -10 -17 -10 -18 0 -20 2 -8 10 19 12 18 12 25 0z"/>
<path d="M2803 1333 c20 -2 54 -2 75 0 20 2 3 4 -38 4 -41 0 -58 -2 -37 -4z"/>
<path d="M3210 1321 c-8 -5 -35 -11 -59 -15 -24 -4 -55 -16 -69 -26 -14 -12
-40 -20 -61 -20 -46 0 -66 -13 -57 -35 5 -13 14 -16 34 -12 36 7 261 115 242
116 -8 0 -22 -3 -30 -8z"/>
<path d="M2715 1211 c-3 -5 -1 -12 5 -16 5 -3 10 1 10 9 0 18 -6 21 -15 7z"/>
<path d="M3988 1363 c7 -3 16 -2 19 1 4 3 -2 6 -13 5 -11 0 -14 -3 -6 -6z"/>
<path d="M3990 1235 c7 -8 16 -15 21 -15 5 0 6 7 3 15 -4 8 -13 15 -21 15 -13
0 -13 -3 -3 -15z"/>
<path d="M3873 1223 c-14 -5 -18 -23 -5 -23 5 0 17 7 28 15 14 11 15 14 4 14
-8 0 -21 -3 -27 -6z"/>
<path d="M3895 1190 c-3 -5 1 -10 10 -10 9 0 13 5 10 10 -3 6 -8 10 -10 10 -2
0 -7 -4 -10 -10z"/>
<path d="M3951 1161 c-1 -8 -7 -11 -17 -7 -12 4 -14 1 -9 -14 8 -25 -10 -26
-24 -2 -6 9 -11 12 -11 6 0 -6 7 -17 16 -24 13 -11 19 -10 36 7 11 12 18 27
15 34 -5 12 -6 12 -6 0z"/>
<path d="M2960 910 c-47 -14 -57 -19 -35 -19 37 -1 102 16 110 29 8 12 4 12
-75 -10z"/>
<path d="M3430 920 c0 -13 20 -13 40 0 12 8 9 10 -12 10 -16 0 -28 -4 -28 -10z"/>
<path d="M3600 904 c0 -14 3 -14 15 -4 8 7 15 14 15 16 0 2 -7 4 -15 4 -8 0
-15 -7 -15 -16z"/>
<path d="M3655 909 c-11 -17 1 -21 15 -4 8 9 8 15 2 15 -6 0 -14 -5 -17 -11z"/>
<path d="M2870 875 c0 -8 5 -15 10 -15 6 0 10 7 10 15 0 8 -4 15 -10 15 -5 0
-10 -7 -10 -15z"/>
<path d="M3350 880 c0 -5 9 -10 20 -10 11 0 20 5 20 10 0 6 -9 10 -20 10 -11
0 -20 -4 -20 -10z"/>
<path d="M3569 870 c-8 -6 -8 -9 0 -14 14 -9 71 2 71 13 0 10 -55 10 -71 1z"/>
<path d="M3260 835 c0 -17 9 -19 28 -6 11 7 10 10 -3 15 -23 9 -25 8 -25 -9z"/>
<path d="M2940 832 c0 -14 11 -21 26 -15 21 8 17 23 -6 23 -11 0 -20 -4 -20
-8z"/>
<path d="M3162 798 c6 -18 22 -20 43 -3 19 14 18 14 -13 15 -22 0 -32 -4 -30
-12z"/>
<path d="M2960 790 c0 -5 4 -10 9 -10 6 0 13 5 16 10 3 6 -1 10 -9 10 -9 0
-16 -4 -16 -10z"/>
<path d="M3080 755 c0 -16 9 -19 34 -9 25 9 19 24 -9 24 -16 0 -25 -6 -25 -15z"/>
<path d="M2880 750 c0 -5 5 -10 10 -10 6 0 10 5 10 10 0 6 -4 10 -10 10 -5 0
-10 -4 -10 -10z"/>
<path d="M3158 724 c-27 -13 -48 -29 -48 -34 0 -15 34 -12 56 5 10 8 29 15 41
15 12 0 34 5 50 11 22 8 24 12 13 19 -25 16 -62 10 -112 -16z"/>
<path d="M3350 734 l-25 -15 34 3 c19 2 36 9 39 16 5 16 -16 14 -48 -4z"/>
<path d="M3227 679 c-30 -18 -131 -48 -159 -49 -16 0 -28 -4 -28 -9 0 -5 27
-8 59 -8 33 1 57 5 55 9 -2 3 22 16 53 27 95 35 103 40 68 40 -16 0 -38 -4
-48 -10z"/>
<path d="M3693 595 c-14 -17 -32 -25 -52 -25 -36 0 -39 -9 -11 -33 24 -20 66
-22 77 -4 8 12 26 17 71 19 34 1 30 44 -5 52 -16 4 -35 9 -43 11 -8 3 -25 -7
-37 -20z"/>
<path d="M6436 251 c-7 -11 3 -41 14 -41 8 0 20 24 20 41 0 12 -27 12 -34 0z"/>
<path d="M3338 2963 c7 -3 16 -2 19 1 4 3 -2 6 -13 5 -11 0 -14 -3 -6 -6z"/>
<path d="M3229 2934 c-37 -7 -82 -20 -100 -29 -28 -15 -30 -19 -16 -27 10 -5
15 -13 12 -19 -3 -5 1 -6 10 -3 11 5 18 0 22 -15 8 -33 28 -19 25 17 -3 31 -2
32 35 32 49 1 110 32 91 47 -9 7 -33 6 -79 -3z"/>
<path d="M2479 2334 c-16 -20 -7 -26 36 -26 48 0 49 4 10 24 -29 15 -35 15
-46 2z"/>
<path d="M2860 2310 c-13 -8 -12 -10 3 -10 9 0 17 5 17 10 0 12 -1 12 -20 0z"/>
<path d="M2735 2274 c-72 -27 -258 -66 -340 -71 -44 -2 -93 -8 -110 -13 -44
-12 110 -12 205 0 84 11 320 78 320 91 0 13 -30 10 -75 -7z"/>
<path d="M3575 2214 c15 -15 14 -27 -2 -71 -3 -8 3 -13 16 -13 16 0 21 6 21
28 0 47 -11 72 -32 72 -18 0 -18 -1 -3 -16z"/>
<path d="M6867 2083 c-22 -6 -17 -27 7 -31 18 -4 46 14 46 29 0 9 -22 10 -53
2z"/>
<path d="M6920 1986 c0 -9 5 -16 10 -16 6 0 10 4 10 9 0 6 -4 13 -10 16 -5 3
-10 -1 -10 -9z"/>
<path d="M7033 1993 c-18 -7 -16 -23 2 -23 8 0 15 7 15 15 0 8 -1 15 -2 14 -2
0 -9 -3 -15 -6z"/>
<path d="M6799 1941 c-16 -16 -29 -34 -29 -40 0 -17 40 -13 46 4 4 8 17 15 30
15 13 0 24 5 24 10 0 6 -8 10 -17 10 -14 0 -15 2 -5 9 11 7 10 10 -3 15 -11 4
-27 -4 -46 -23z"/>
<path d="M7104 1958 c-4 -6 4 -20 19 -33 32 -25 35 -63 7 -93 -25 -26 -25 -32
-2 -32 24 0 42 40 42 90 0 22 5 40 13 43 9 3 9 7 -2 20 -15 19 -66 23 -77 5z"/>
<path d="M3188 1942 c-1 -4 -46 -24 -98 -45 -52 -21 -106 -46 -120 -56 -28
-19 -193 -71 -226 -71 -30 0 -35 -9 -17 -36 9 -14 11 -24 5 -24 -6 0 -16 9
-23 21 -9 17 -17 20 -45 15 -18 -4 -43 -2 -54 4 -26 14 -25 6 2 -30 19 -27 28
-30 74 -30 104 0 226 51 491 206 18 10 33 27 33 37 0 17 -15 24 -22 9z"/>
<path d="M6930 1911 c0 -14 18 -23 31 -15 8 4 7 9 -2 15 -18 11 -29 11 -29 0z"/>
<path d="M4140 1855 c0 -8 9 -20 20 -27 11 -7 20 -18 20 -25 0 -7 37 -51 83
-98 45 -46 114 -119 154 -160 59 -61 78 -75 103 -75 27 0 30 2 20 20 -6 11
-27 32 -47 47 -54 41 -245 232 -273 273 -37 56 -80 80 -80 45z"/>
<path d="M6949 1835 c-1 -5 -1 -13 0 -17 0 -5 -3 -8 -9 -8 -5 0 -10 -7 -10
-15 0 -10 9 -14 30 -12 16 1 30 5 30 8 0 12 -39 54 -41 44z"/>
<path d="M3755 1790 c3 -5 8 -10 11 -10 2 0 4 5 4 10 0 6 -5 10 -11 10 -5 0
-7 -4 -4 -10z"/>
<path d="M3840 1790 c0 -5 5 -10 11 -10 5 0 7 5 4 10 -3 6 -8 10 -11 10 -2 0
-4 -4 -4 -10z"/>
<path d="M6660 1790 c0 -5 5 -10 11 -10 5 0 7 5 4 10 -3 6 -8 10 -11 10 -2 0
-4 -4 -4 -10z"/>
<path d="M3802 1779 c2 -7 10 -15 17 -17 8 -3 12 1 9 9 -2 7 -10 15 -17 17 -8
3 -12 -1 -9 -9z"/>
<path d="M7127 1773 c-4 -6 0 -16 8 -23 14 -11 14 -15 -2 -32 -13 -15 -18 -42
-20 -135 -4 -123 -1 -133 43 -133 25 0 25 -2 31 136 3 92 2 113 -11 124 -9 7
-16 18 -16 24 0 20 -26 50 -33 39z"/>
<path d="M3720 1761 c0 -6 5 -11 10 -11 6 0 10 -11 10 -25 0 -29 0 -29 35 -13
28 12 33 28 10 28 -9 0 -27 7 -40 16 -15 10 -25 12 -25 5z"/>
<path d="M4493 1754 c-7 -18 77 -99 145 -140 23 -14 42 -29 42 -34 0 -17 27
-17 49 -1 l23 18 -63 47 c-35 25 -70 44 -77 41 -10 -3 -12 0 -8 10 7 20 -51
74 -82 75 -12 0 -25 -7 -29 -16z"/>
<path d="M6660 1730 c0 -5 5 -10 10 -10 6 0 10 5 10 10 0 6 -4 10 -10 10 -5 0
-10 -4 -10 -10z"/>
<path d="M4674 1718 c-4 -6 -2 -14 5 -16 7 -2 33 -21 59 -43 95 -78 108 -87
152 -110 25 -13 69 -40 98 -62 35 -26 61 -37 74 -34 13 4 18 1 15 -8 -4 -8 12
-20 45 -34 28 -12 55 -21 61 -21 25 0 184 -54 200 -68 9 -8 20 -12 24 -9 3 4
0 7 -8 8 -8 0 -4 4 9 9 35 15 26 27 -35 50 -44 16 -62 19 -80 11 -14 -6 -24
-7 -28 -1 -4 6 -1 10 4 10 32 0 -1 22 -100 65 -125 55 -242 120 -371 206 -89
60 -111 68 -124 47z"/>
<path d="M6936 1691 c-8 -13 -9 -172 -1 -203 5 -21 13 -28 31 -28 24 0 24 1
24 110 0 98 -2 110 -19 120 -24 12 -28 12 -35 1z"/>
<path d="M7027 1663 c8 -42 7 -130 -2 -180 -5 -30 -4 -33 20 -33 l25 0 -4 114
c-4 119 -8 136 -32 136 -12 0 -13 -8 -7 -37z"/>
<path d="M6612 1655 c0 -16 2 -22 5 -12 2 9 2 23 0 30 -3 6 -5 -1 -5 -18z"/>
<path d="M3730 1650 c0 -23 10 -26 28 -8 18 18 15 28 -8 28 -13 0 -20 -7 -20
-20z"/>
<path d="M4733 1568 c-13 -6 -23 -14 -23 -17 0 -13 159 -111 259 -161 72 -36
113 -51 132 -48 16 3 30 -1 33 -7 4 -10 136 -45 171 -45 34 0 11 16 -48 34
-104 33 -241 88 -262 106 -11 9 -44 30 -72 46 -45 25 -56 27 -73 16 -30 -18
-35 -15 -9 6 l22 19 -46 31 c-50 35 -52 36 -84 20z m72 -58 c3 -5 -1 -10 -9
-10 -9 0 -16 5 -16 10 0 6 4 10 9 10 6 0 13 -4 16 -10z"/>
<path d="M6400 1520 c0 -15 7 -20 28 -20 15 0 37 -3 50 -6 39 -11 23 13 -21
30 -54 20 -57 20 -57 -4z"/>
<path d="M4386 1463 c-18 -18 111 -152 240 -249 45 -33 68 -44 97 -44 20 0 37
3 37 8 0 4 -31 27 -68 52 -36 25 -109 86 -162 136 -85 81 -129 111 -144 97z"/>
<path d="M4540 1420 c25 -22 80 -66 123 -97 43 -32 95 -70 114 -85 20 -16 42
-28 50 -28 7 0 26 -9 41 -20 29 -21 172 -41 172 -23 0 11 -86 43 -117 43 -12
0 -30 8 -40 18 -10 11 -52 40 -93 67 -41 26 -107 74 -146 106 -60 50 -77 59
-110 59 l-39 -1 45 -39z"/>
<path d="M5188 1222 c-21 -4 -24 -22 -4 -22 8 0 16 -4 18 -10 2 -5 17 -12 33
-15 23 -5 38 0 64 19 34 25 34 26 10 27 -68 4 -106 4 -121 1z"/>
<path d="M4374 1205 c-8 -20 48 -65 202 -162 16 -10 14 -11 -16 -6 -55 9 -24
-15 38 -29 41 -10 51 -16 47 -29 -9 -29 67 -48 138 -35 31 6 57 14 57 18 0 4
-28 21 -63 36 -70 32 -232 125 -319 184 -63 42 -76 45 -84 23z m360 -254 c3
-4 -6 -6 -19 -3 -14 2 -25 6 -25 8 0 8 39 4 44 -5z"/>
<path d="M4766 1157 c-15 -11 -1 -21 92 -72 64 -35 105 -63 98 -67 -21 -14 18
-7 63 11 42 17 44 19 24 30 -12 6 -32 11 -45 11 -13 0 -57 19 -98 41 -104 56
-115 60 -134 46z"/>
<path d="M5057 1143 c-4 -3 -21 -6 -38 -5 -29 1 -26 -2 27 -28 l58 -29 26 22
c14 12 27 23 30 25 2 2 -2 7 -10 12 -17 11 -83 13 -93 3z"/>
<path d="M4340 1130 c0 -5 7 -10 15 -10 8 0 15 5 15 10 0 6 -7 10 -15 10 -8 0
-15 -4 -15 -10z"/>
<path d="M5140 1100 c-9 -6 -10 -10 -3 -10 6 0 15 5 18 10 8 12 4 12 -15 0z"/>
<path d="M4875 1000 c3 -5 16 -10 28 -9 21 0 21 1 2 9 -28 12 -37 12 -30 0z"/>
<path d="M3900 700 c0 -5 9 -10 21 -10 11 0 17 5 14 10 -3 6 -13 10 -21 10 -8
0 -14 -4 -14 -10z"/>
<path d="M6390 145 c7 -8 16 -15 21 -15 5 0 9 7 9 15 0 9 -9 15 -21 15 -18 0
-19 -2 -9 -15z"/>
</g>
</svg>
